<?xml version="1.0" encoding="UTF-8"?>
<svg xmlns="http://www.w3.org/2000/svg" xmlns:xlink="http://www.w3.org/1999/xlink" viewBox="0 0 500 500">
  <defs>
    <style>
      .cls-1 {
        fill: #231f20;
      }

      .cls-2 {
        fill: #ec008c;
      }

      .cls-3 {
        fill: #2e3192;
      }
    </style>
  </defs>
  <g id="Layer_5" data-name="Layer 5">
    <path class="cls-3" d="M213.93,274.86c-8.14,3.74-16.35,7.6-23.07,13.65-2.99,2.7-5.67,5.85-7.68,9.35-1.05,1.84-1.88,3.79-2.59,5.79-.62,1.76-1.19,3.72-2.57,5.06-.98.95-2.33,1.5-3.47.55-1.32-1.1-2.21-2.93-2.9-4.46-1.48-3.29-2.03-7.12-1.52-10.69,1.02-7.12,6.56-12.84,13.64-14.1,1.9-.34,3.97-.25,5.81.33,2.04.65,3.13,2.26,4.07,4.08,2.29,4.41,3.3,9.38,3.16,14.33l3.76-2.16c-2.96-1.88-5.01-4.88-7.88-6.9-3.18-2.24-7.26-2.73-10.9-1.41-8.28,3.01-11.14,11.41-13.17,19.21-.7,2.68,3.2,4.48,4.57,1.93,3.38-6.32,6.25-12.9,8.6-19.67.39-1.13-.29-2.19-1.15-2.82-1.98-1.46-4.41-.09-5.68,1.61-1.15,1.53-2.1,3.23-2.94,4.95-1.78,3.64-3.02,7.5-3.63,11.51-.17,1.12.11,2.22,1.15,2.82.93.54,2.29.42,3.03-.39,6.62-7.24,12.32-15.33,16.79-24.06.97-1.89,1.87-3.94,1.02-6.06-.97-2.45-4.03-2.91-5.9-1.15-1.54,1.45-2.56,3.82-3.42,5.71-1.02,2.23-1.87,4.54-2.47,6.92-1.31,5.23-1.49,10.58-.69,15.9.29,1.94,2.96,2.29,4.18,1.1,7.69-7.5,14.21-16.25,19.12-25.82,1.14-2.22,2.87-4.87,2.93-7.43.06-3.02-2.59-5.05-5.51-4.25-2.4.66-4.65,2.63-6.5,4.22s-3.6,3.49-5.12,5.48c-3.31,4.32-5.63,9.39-6.68,14.73-.38,1.96,1.73,4.15,3.67,2.82,10.6-7.25,19.53-16.73,26.06-27.8.66-1.12.3-2.8-.9-3.42-3.38-1.77-7.1-.75-10.19,1.16s-5.94,4.45-8.57,7.02c-5.61,5.49-11,11.22-16.28,17.03-2.21,2.43,1.07,5.53,3.54,3.54,6.47-5.22,14.02-9.01,22.02-11.21,3.1-.85,1.78-5.68-1.33-4.82-8.88,2.44-17.07,6.72-24.23,12.49l3.54,3.54c4.79-5.25,9.68-10.41,14.7-15.45,2.25-2.27,4.55-4.56,7.13-6.45,1.74-1.28,4.85-3.72,7.15-2.52l-.9-3.42c-6.08,10.31-14.38,19.24-24.26,26l3.67,2.82c1.52-7.75,5.93-14.92,12.42-19.49.42-.29.84-.58,1.27-.85.16-.1,1.03-.46,1.06-.59.06-.24.89.74-.26-.27l-.38-.24c-.09-.45-.12-.53-.11-.24-.11.17-.12.61-.2.83-.76,2.11-1.98,4.16-3.04,6.12-2.17,4.01-4.62,7.86-7.33,11.53-3.01,4.07-6.38,7.86-10,11.38l4.18,1.1c-1.08-7.14.27-14.69,3.67-21.04.2-.37.4-.74.61-1.1.16-.27.76-.98.76-1.25,0-.17-1.8-.63-1.94-.64-.3-.02.06-.49-.12-.08s-.33.9-.69,1.6c-.47.92-.96,1.83-1.45,2.74-1.88,3.43-3.96,6.75-6.21,9.95-2.55,3.63-5.35,7.08-8.35,10.35l4.18,2.43c.44-2.92,1.19-5.81,2.32-8.54.52-1.27,1.14-2.5,1.81-3.69.35-.63.73-1.25,1.12-1.85.13-.2.58-.65.6-.9l.07-.04c.34-.29,0-.3-1.02-.05l-1.15-2.82c-2.22,6.37-4.92,12.53-8.1,18.48l4.57,1.93c1.54-5.9,3.46-13.69,10.03-15.84,2.7-.88,5.14-.3,7.31,1.51,2.5,2.08,4.49,4.65,7.27,6.42,1.65,1.05,3.71-.33,3.76-2.16.15-5.26-.93-10.43-3.06-15.23-.97-2.17-2.17-4.42-4.04-5.96-1.98-1.63-4.36-2.35-6.87-2.62-8.59-.94-17.41,4.59-20.87,12.4-1.93,4.36-2.39,9.09-1.61,13.78.7,4.15,2.62,9.16,5.93,11.92,4.24,3.54,9.78,1.02,12.19-3.37,1.15-2.09,1.71-4.42,2.65-6.59s2.1-4.07,3.46-5.88c6.6-8.82,17.13-13.54,26.86-18.02,1.23-.56,1.53-2.34.9-3.42-.74-1.26-2.19-1.46-3.42-.9h0Z"/>
    <path class="cls-3" d="M183.27,249.37c-4,1.84-7.24,4.14-10.74,6.85-2.15,1.66-4.53,3.27-6.38,5.32-2.32,2.58-4.42,5.47-6.45,8.27-.43.59-.83,1.19-1.17,1.84-1.59,3.05-2.91,6.44-4.12,9.65-.22.59-.42,1.19-.56,1.81-.81,3.47-1.17,7.17-1.5,10.7-.06.62-.1,1.24-.08,1.86.01.31.05.61.07.92.27,3.05.73,6.76,1.32,9.76.13.68.31,1.32.55,1.97.94,2.56,2.5,6.33,3.71,8.78.13.27.27.54.42.8s.33.51.51.76c1.78,2.51,3.92,5.28,5.91,7.62l7.08,5.47,8.36,3.53c3.1.42,6.2.83,9.3,1.25,4.82.18,9.31-.82,13.48-3.01,2.96-.83,5.54-2.33,7.72-4.5,2.63-1.56,4.72-3.65,6.28-6.28,2.17-2.18,3.67-4.76,4.5-7.72,2.19-4.17,3.2-8.67,3.01-13.48.33-2.77-.25-5.41-.62-8.17-.41-3.02-.6-5.74-1.68-8.53-1.44-3.68-2.8-7.69-4.95-11.08-2.28-3.6-4.92-7.04-7.85-10.13s-6.33-5.33-9.57-7.71c-1.2-.88-2.44-1.68-3.75-2.37-5.11-2.68-10.6-4.95-16.16-6.55-2.87-.83-5.81-1.5-8.76-2.01-4.37-.76-8.78-1.39-13.21-1.78-1.59-.14-3.2-.19-4.8-.08-4.4.31-8.86.78-13.14,1.84s-8.02,2.93-11.75,4.75c-1,.49-1.92,1.09-2.82,1.74-2.86,2.08-7.03,4.84-9.6,7.91-2.21,2.65-4.58,5.45-6.41,8.4-.32.52-.58,1.07-.84,1.62-3.8,8.06-5.01,11.72-5.58,20.78-.41,6.52,1.68,12.9,2.63,19.3l-1.25-9.3c.14,1.21.16,2.39.01,3.6l1.25-9.3c-.14.89-.36,1.72-.71,2.55l3.53-8.36c-.25.52-.53.99-.88,1.45l5.47-7.08c-.28.33-.57.61-.9.89l7.08-5.47c-.39.29-.76.5-1.2.72l8.36-3.53c-.52.2-.99.33-1.53.44l9.3-1.25c-1.09.14-2.14.1-3.23-.04l9.3,1.25c-1.78-.29-3.47-.8-5.14-1.49l8.36,3.53c-2.83-1.25-5.39-2.95-7.85-4.83l7.08,5.47c-6.32-4.9-12.65-10.25-17.56-16.6l5.47,7.08c-1.9-2.52-3.53-5.19-4.78-8.1l3.53,8.36c-.97-2.37-1.67-4.8-2.05-7.33l1.25,9.3c-.28-2.14-.32-4.27-.06-6.42l-1.25,9.3c.26-1.78.71-3.48,1.38-5.15l-3.53,8.36c.83-1.93,1.91-3.69,3.19-5.36l-5.47,7.08c2.77-3.5,6.19-6.35,9.7-9.06l-7.08,5.47c9.52-7.31,19.94-13.36,30.99-18.05l-8.36,3.53c9.68-4.06,19.77-7.05,30.11-8.89l8.36-3.53c4.08-2.2,7.35-5.2,9.82-9.01,2.17-2.18,3.67-4.76,4.5-7.72,2.19-4.17,3.2-8.67,3.01-13.48l-1.25-9.3-3.53-8.36c-2.2-4.08-5.2-7.35-9.01-9.82-3.38-3.09-7.35-5.18-11.9-6.26-4.92-1.92-10.7-2.4-15.81-2.73-1.16-.07-2.33-.05-3.49.06-4.15.42-8.38.81-12.45,1.82-4.55,1.08-8.52,3.17-11.9,6.26-3.81,2.47-6.82,5.74-9.01,9.82l-3.53,8.36c-1.46,4.65-1.67,9.3-.63,13.96,0,3.16.81,6.1,2.39,8.83,1.41,4.34,3.82,8.09,7.24,11.26l7.08,5.47c5.46,3.17,11.35,4.76,17.67,4.78,10.77-.59,21.47-1.97,32.14-3.55,7.78-1.16,15.5-2.7,23.14-4.59,4.55-1.08,8.52-3.17,11.9-6.26,3.81-2.47,6.82-5.74,9.01-9.82,2.56-4.02,3.94-8.36,4.15-13.01,1.04-4.65.83-9.3-.63-13.96l-3.53-8.36c-3.11-5.26-7.3-9.44-12.56-12.56l-8.36-3.53c-6.2-1.67-12.41-1.67-18.61,0-4.44.76-8.9,1.44-13.37,2.05l9.3-1.25c-15.54,2.07-31.2,3.15-46.88,3.23v70c5.56-.26,11.15-1.1,16.61-2.14,2.62-.5,5.22-1.15,7.81-1.8,5.27-1.33,10.53-2.5,15.92-3.24l-9.3,1.25c9.47-1.26,19.02-1.59,28.55-2.03,9.85-.46,19.69-.92,29.54-1.37,19.32-.9,38.65-1.99,58-2.24,10.75-.14,21.56-.15,32.25,1.27l-9.3-1.25c8.51,1.18,16.68,3.46,24.6,6.77l-8.36-3.53c15.5,6.56,30.32,15.54,43.64,25.81l-7.08-5.47c9.67,7.51,18.56,16.01,26.11,25.67l-5.47-7.08c2.5,3.24,4.8,6.62,6.44,10.39-1.18-2.79-2.35-5.57-3.53-8.36.84,2.04,1.45,4.12,1.78,6.3l-1.25-9.3c.24,1.97.25,3.91.01,5.88l1.25-9.3c-.32,2.27-.92,4.44-1.78,6.56l3.53-8.36c-1.18,2.78-2.74,5.35-4.57,7.76l5.47-7.08c-2.55,3.27-5.53,6.14-8.8,8.69l7.08-5.47c-5.87,4.47-12.56,7.7-19.1,11.05-3.29,1.68-6.57,3.4-9.73,5.31-5.61,3.38-10.86,7.47-15.84,11.7-3.41,3.17-5.83,6.92-7.24,11.26-2.19,4.17-3.2,8.67-3.01,13.48.42,3.1.83,6.2,1.25,9.3,1.08,4.55,3.17,8.52,6.26,11.9,1.56,2.63,3.65,4.72,6.28,6.28,3.38,3.09,7.35,5.18,11.9,6.26,3.1.42,6.2.83,9.3,1.25,6.32-.02,12.21-1.61,17.67-4.78.98-.57,1.97-1.07,3.01-1.53l-8.36,3.53c2.27-.94,4.61-1.57,7.04-1.91l-9.3,1.25c2.25-.26,4.48-.27,6.73,0-3.1-.42-6.2-.83-9.3-1.25.37.05.74.11,1.11.17-2.79-21.32-5.57-42.65-8.36-63.97-7.04,3.84-14.27,7.32-21.67,10.44,2.79-1.18,5.57-2.35,8.36-3.53-21.16,8.87-43.48,14.7-66.21,17.77l9.3-1.25c-20.25,2.69-40.76,3.21-61.13,1.68-5.88-.44-11.74-1.05-17.58-1.83l9.3,1.25c-12.49-1.69-24.91-4.28-36.59-9.15,2.79,1.18,5.57,2.35,8.36,3.53-6.52-2.77-12.6-6.38-18.82-9.74-8.58-4.62-17.73-7.85-26.71-11.56l8.36,3.53c-2.71-1.15-5.32-2.47-7.67-4.25l7.08,5.47c-1.33-1.06-2.53-2.22-3.6-3.55l5.47,7.08c-.81-1.06-1.49-2.17-2.05-3.39l3.53,8.36c-.45-1.07-.77-2.15-.96-3.29l1.25,9.3c-.15-1.19-.15-2.34,0-3.54l-1.25,9.3c.22-1.34.6-2.61,1.12-3.87l-3.53,8.36c.87-1.92,2-3.66,3.29-5.32l-5.47,7.08c3.92-4.94,8.64-9.36,13.15-13.76s9.29-8.77,14.33-12.7l-7.08,5.47c5.73-4.42,11.85-8.3,18.52-11.13l-8.36,3.53c4.81-1.99,9.79-3.35,14.95-4.09l-9.3,1.25c8.03-1.06,16.16-.83,24.25-.73s16.78.26,25.18.46c16.6.41,33.2.97,49.79,1.82,9.15.47,18.3,1.1,27.39,2.32l-9.3-1.25c13.19,1.8,26.05,5.03,38.34,10.18-2.79-1.18-5.57-2.35-8.36-3.53,5.16,2.18,10.75,4.44,15.28,7.8l-7.08-5.47c.9.71,1.72,1.46,2.46,2.34l-5.47-7.08c.46.61.85,1.23,1.16,1.93-1.18-2.79-2.35-5.57-3.53-8.36.15.42.26.81.35,1.24l-1.25-9.3c.05.45.06.85.03,1.3l1.25-9.3c-.07.48-.18.89-.34,1.35l3.53-8.36c-.21.46-.43.85-.71,1.27l5.47-7.08c-.94,1.22-2.11,2.18-3.32,3.12l7.08-5.47c-2.71,2.04-5.66,3.67-8.77,5l8.36-3.53c-7.63,3.18-15.83,4.54-23.95,5.85-9.6,1.55-19.22,2.97-28.86,4.27l9.3-1.25c-27.74,3.72-55.62,6.39-83.56,7.99-7.88.45-15.76.81-23.64,1.1-4.82-.18-9.31.82-13.48,3.01-4.34,1.41-8.09,3.82-11.26,7.24-3.41,3.17-5.83,6.92-7.24,11.26-2.19,4.17-3.2,8.67-3.01,13.48l1.25,9.3c1.66,5.93,4.66,11.08,9,15.44l7.08,5.47c5.46,3.17,11.35,4.76,17.67,4.78,35.86-1.28,71.64-4.33,107.2-9.09,11.67-1.56,23.33-3.16,34.97-5.01,7.77-1.23,15.65-2.35,23.13-4.85,6.11-2.04,12.3-4.46,17.84-7.8,7.62-4.58,15.3-10.83,19.7-18.74,5.18-9.32,6.51-19.7,4.04-30.05-.1-.43-.21-.82-.35-1.24-.81-2.43-2.52-6.52-3.71-8.76-1.73-3.27-4.36-6.35-6.75-8.97-.55-.61-1.14-1.15-1.77-1.68-2.76-2.3-5.67-4.67-8.69-6.64-1.7-1.11-3.56-2.01-5.37-2.93-9.78-4.93-20.05-9.22-30.54-12.42-9.65-2.95-19.52-4.58-29.5-5.92-18.92-2.54-37.93-3.31-56.99-4.01s-36.17-1.08-54.27-1.27c-4.39-.05-8.78-.09-13.16.15-2.08.11-4.15.29-6.21.55-5.03.62-10.14,1.14-15.09,2.26-6.33,1.44-12.2,4.14-18.14,6.68-3.39,1.45-6.66,3.13-9.8,5.06-8.59,5.27-16.57,11.72-24.04,18.48-5.58,5.05-10.95,10.39-16.09,15.88-3.15,3.35-5.85,7.05-8.63,10.72-1.11,1.47-2.16,2.97-2.96,4.63-1.84,3.79-4.14,8.29-4.94,12.67-.64,3.54-1.34,7.37-1.41,11.07-.01.51.02,1.02.06,1.53.26,3.22.73,7.12,1.39,10.28,1.8,8.57,7.43,17.45,13.62,23.52,4.63,4.54,10.16,8.56,16.14,11.17s12.37,4.93,18.53,7.52l-8.36-3.53c7.64,3.29,14.63,7.81,22.06,11.5,9.83,4.89,20.22,8.97,30.9,11.6s21.55,3.98,32.39,5.29c7.8.95,15.63,1.6,23.48,1.94,15.52.68,31.09.17,46.52-1.61,18.43-2.12,36.69-5.12,54.51-10.37,8.33-2.45,16.53-5.32,24.55-8.63,10.76-4.44,21.39-9.05,31.61-14.63l7.08-5.47,5.47-7.08,3.53-8.36c1.46-4.65,1.67-9.3.63-13.96,0-3.16-.81-6.1-2.39-8.83-.83-2.96-2.33-5.54-4.5-7.72-1.56-2.63-3.65-4.72-6.28-6.28-3.38-3.09-7.35-5.18-11.9-6.26-4.51-.75-9.17-1.64-13.78-1.64s-9.28.86-13.79,1.63c-1.57.27-3.12.68-4.62,1.23-3.44,1.26-6.87,2.73-10.18,4.27-.85.4-1.68.83-2.49,1.3,14.14,18.32,28.28,36.65,42.41,54.97.7-.6,1.42-1.18,2.14-1.74l-7.08,5.47c9.52-7.28,20.9-11.41,30.99-17.75,4.7-2.96,9.11-6.45,13.35-10.02,2.11-1.78,4.09-3.72,5.86-5.83,2.63-3.12,5.15-6.38,7.51-9.71.83-1.16,1.59-2.37,2.27-3.63,2.62-4.83,5.02-10.06,6.27-15.44.94-4.05,1.36-8.3,1.76-12.42.13-1.38.14-2.78.02-4.16-.31-3.5-.84-7.08-1.4-10.55-.12-.72-.25-1.43-.42-2.14-1.03-4.15-3.23-8.64-4.84-12.27-1.21-2.73-2.71-5.27-4.44-7.7-3.33-4.7-6.91-9.26-10.63-13.66-9.51-11.28-20.9-20.49-32.7-29.27-9.73-7.24-20.17-13.58-30.96-19.1-8.25-4.22-16.84-8-25.61-10.97s-18.43-4.25-27.91-5.43c-13.47-1.68-27.21-1.27-40.75-.91s-28.01,1.1-42.02,1.75-28.17,1.3-42.26,1.96c-6.74.32-13.48.68-20.18,1.49-6.22.76-12.5,1.5-18.65,2.73-3.24.65-6.44,1.5-9.65,2.3s-6.38,1.53-9.64,2l9.3-1.25c-1.42.19-2.84.32-4.28.39-4.82-.18-9.31.82-13.48,3.01-4.34,1.41-8.09,3.82-11.26,7.24-3.41,3.17-5.83,6.92-7.24,11.26-2.19,4.17-3.2,8.67-3.01,13.48l1.25,9.3c1.66,5.93,4.66,11.08,9,15.44l7.08,5.47c5.46,3.17,11.35,4.76,17.67,4.78,23.32-.12,46.58-2.6,69.55-6.53l-18.61-67.5c-8.67,2.15-17.44,3.83-26.3,5.04l9.3-1.25c-6.53.88-13.1,1.5-19.68,1.86l9.3,68.75c.76-.19,1.51-.34,2.28-.46l-9.3,1.25c1.94-.25,3.86-.26,5.81-.03l-9.3-1.25c1.74.26,3.41.7,5.05,1.34v-67.5c-15.22,2.7-29.64,8.15-43.6,14.71-5.59,2.63-11.02,5.62-16.21,8.97-2.68,1.72-5.3,3.53-7.85,5.44-4.63,3.45-9.34,6.9-13.66,10.75s-7.7,8.45-11.01,13.06c-.81,1.13-1.54,2.32-2.13,3.57-1.88,3.93-3.92,8.07-4.95,12.37-.17.69-.28,1.4-.39,2.1-.55,3.6-1.18,7.26-1.4,10.9-.09,1.52,0,3.04.17,4.56.49,4.11.86,8.84,2,13.03s3.13,8.25,4.86,12.23c1.26,2.91,2.88,5.56,4.78,8.1,3.56,4.74,7.08,9.46,11.34,13.6,6.42,6.23,13.68,12.11,20.99,17.19,1.34.93,2.73,1.79,4.18,2.52,3.32,1.67,6.85,3.07,10.31,4.42.75.29,1.5.56,2.28.78,4.45,1.24,9.22,2.05,13.83,1.9.36-.01.71-.06,1.07-.1l9.3-1.25c.26-.04.52-.1.78-.18,1.64-.47,3.74-1.52,4.93-2.03,1.74-.73,3.44-1.29,5.03-2.23l.35-.25,7.08-5.47c.32-.29.6-.57.9-.89,1.65-1.81,4.42-5.38,5.72-7.42.19-.3.36-.61.53-.92,3.89-7.09,5.01-12.88,5.63-20.86.5-6.38-1.56-12.66-2.56-18.91l1.25,9.3c-.18-1.35-.25-2.65-.08-4l-1.25,9.3c.15-.92.4-1.78.75-2.65l-3.53,8.36c.44-.99.98-1.89,1.64-2.76l-5.47,7.08c.79-.98,1.67-1.84,2.66-2.62l-7.08,5.47c1.15-.86,2.37-1.56,3.69-2.14l-8.36,3.53c1.48-.6,3-.98,4.58-1.24l-9.3,1.25c2.8-.37,5.58-.26,8.38.09l-9.3-1.25c5.47.77,11.03,2.06,16.14,4.17-2.79-1.18-5.57-2.35-8.36-3.53,2.22.96,4.32,2.11,6.27,3.56l-7.08-5.47c1.36,1.07,2.58,2.25,3.67,3.6l-5.47-7.08c1.05,1.37,1.93,2.81,2.61,4.4l-3.53-8.36c.5,1.26.86,2.54,1.06,3.88l-1.25-9.3c.13,1.19.13,2.33,0,3.52,19.92-8.25,39.83-16.5,59.75-24.75l-.3-.35,5.47,7.08c-.47-.62-.84-1.25-1.17-1.95l3.53,8.36c-.34-.86-.56-1.72-.7-2.63l1.25,9.3c-.09-.94-.09-1.85,0-2.78l-1.25,9.3c.18-1.26.5-2.46.99-3.64l-3.53,8.36c.47-1.04,1.04-1.98,1.73-2.89l-5.47,7.08c1.07-1.35,2.3-2.51,3.66-3.56l-7.08,5.47c2.24-1.65,4.68-2.95,7.2-4.11,4.08-2.2,7.35-5.2,9.82-9.01,3.09-3.38,5.18-7.35,6.26-11.9,1.46-4.65,1.67-9.3.63-13.96-.21-4.66-1.6-9-4.15-13.01l-5.47-7.08c-4.37-4.34-9.52-7.34-15.44-9l-9.3-1.25c-6.32.02-12.21,1.61-17.67,4.78h0Z"/>
    <path class="cls-3" d="M398.33,203.05c-3.94-4.19-7.6-8.61-11.12-13.16l5.47,7.08c-8.18-10.68-15.87-21.71-24.14-32.32-7.34-9.43-15.31-17.6-24.77-24.91-12.44-9.61-26.48-16.37-41.72-20.45-14.96-4.01-30.61-5.59-45.95-7.35-54.72-6.29-110.2-5.97-164.84.99-14.39,1.83-29.15,3.46-42.84,8.56-7.86,2.93-16.08,6.19-23.03,11.03-4.37,3.04-8.73,6.3-12.63,9.94-4.19,3.92-7.51,8.68-10.96,13.23-3.17,5.46-4.76,11.35-4.78,17.67-.18,4.82.82,9.31,3.01,13.48,4.34,10.28,12.11,16.78,22.68,20.26,24.7,8.13,51.61,9.73,77.44,8.51,24.2-1.14,48.38-3.96,72.41-6.95,51.59-6.42,102.85-15.03,153.54-26.56,11.29-2.57,22.6-5.19,33.63-8.77,8.03-2.6,15.82-5.84,23.54-9.24,7.32-3.23,13.87-6.92,19.84-12.41,11.25-10.34,15.78-26.7,12.08-41.41-3.03-12.03-11.66-21.57-21.97-28.02-6.54-4.09-14.36-6.58-21.6-9.26-5.42-2-10.91-3.79-16.46-5.38-24.62-7.05-50.4-10.44-75.91-12.18-23.67-1.61-47.46-1.54-71.16-.8-51.88,1.61-103.72,7.43-154.76,16.88-6.14,1.14-12.27,2.34-18.39,3.59-7.92,1.62-17.17,9-20.92,16.08s-5.22,14.36-4.15,22.32c.99,7.34,4,14.93,9.63,20.1,6.63,6.08,15.47,10.77,24.75,10.25,63.84-3.55,127.54-9.5,190.93-17.88,20.68-2.73,41.35-5.61,61.97-8.78,7.76-1.19,17.36-9.35,20.92-16.08,3.73-7.07,5.22-14.36,4.15-22.32-.99-7.34-4-14.93-9.63-20.1-7.07-6.49-15.1-9.68-24.75-10.25-77.26-4.55-154.19,7.28-231.4,7.24-21.5-.01-43.12-.79-64.47-3.46l9.3,1.25c-2.41-.35-4.73-.88-6.99-1.79l8.36,3.53c-1.05-.48-2.01-1.02-2.95-1.7l7.08,5.47c-.64-.54-1.16-1.06-1.69-1.72l5.47,7.08c-.32-.43-.58-.89-.79-1.39l3.53,8.36c-.22-.51-.38-1.04-.47-1.59l1.25,9.3c-.11-.65-.14-1.29-.07-1.94l-1.25,9.3c.17-1,.4-1.79.8-2.73l-3.53,8.36c.29-.59.63-1.15,1.02-1.69l-5.47,7.08c1.08-1.39,2.29-2.57,3.64-3.7l-7.08,5.47c9.2-7.1,20.24-12.24,30.89-16.75l-8.36,3.53c23.24-9.67,47.82-15.48,72.13-21.73,27.19-6.99,54.38-13.98,81.56-20.96,15.54-3.99,31.07-7.99,46.61-11.98,8.43-2.17,16.55-8.62,20.92-16.08s6.25-18.56,3.53-26.97-7.99-16.64-16.08-20.92l-8.36-3.53c-6.2-1.67-12.41-1.67-18.61,0-53.92,7.39-107.83,14.77-161.75,22.16C29.27-11.94,13.93-9.84-1.41-7.73-9.12-6.68-18.83,1.73-22.33,8.35c-3.73,7.07-5.22,14.36-4.15,22.32.99,7.34,4,14.93,9.63,20.1,6.76,6.21,15.34,10.45,24.75,10.25,56.52-1.2,113.04-2.39,169.56-3.59,16.01-.34,32.03-.68,48.04-1.02V-13.59C158.58-10.25,91.66-6.9,24.74-3.56L-31.81-.73c-9.25.46-18.09,3.59-24.75,10.25-6.07,6.07-10.64,16.03-10.25,24.75s3.38,18.44,10.25,24.75c6.77,6.22,15.33,10.43,24.75,10.25,63.59-1.19,127.18-2.39,190.77-3.58l189.36-3.55c35.8-.67,71.6-1.34,107.4-2.01,9.08-.17,18.28-3.79,24.75-10.25,6.07-6.07,10.64-16.03,10.25-24.75s-3.38-18.44-10.25-24.75-15.18-9.99-24.75-10.25c-75.97-2.06-151.98,2.14-227.49,10.4-23.97,2.62-47.88,5.7-71.77,8.96-7.7,1.05-17.42,9.47-20.92,16.08-3.73,7.07-5.22,14.36-4.15,22.32.99,7.34,4,14.93,9.63,20.1,6.6,6.05,15.5,10.84,24.75,10.25,51.93-3.29,103.85-6.58,155.78-9.87,51.69-3.27,103.38-6.55,155.07-9.82,29.37-1.86,58.74-3.72,88.11-5.58-5.89-21.74-11.78-43.48-17.67-65.22-3.73,2-7.54,3.81-11.43,5.46l8.36-3.53c-21.11,8.73-43.78,12.4-66.11,16.51-24.27,4.47-48.54,8.94-72.81,13.4-49,9.02-98,18.04-147,27.06-27.51,5.06-55.01,10.13-82.52,15.19-8.2,1.51-16.85,9.13-20.92,16.08-4.39,7.5-6.25,18.56-3.53,26.97s7.99,16.64,16.08,20.92l8.36,3.53c6.2,1.67,12.41,1.67,18.61,0,16.65-2.43,33.32-4.77,50-7.01l-9.3,1.25c47.03-6.3,94.16-11.85,141.37-16.61s94.03-8.7,141.14-11.9c26.82-1.82,53.66-3.38,80.5-4.71l-17.67-65.22c-8.72,5.72-17.98,10.47-27.58,14.53l8.36-3.53c-29.83,12.38-62.14,18.83-93.65,25.36-32.73,6.77-65.68,12.43-98.7,17.6-66.52,10.42-133.35,18.89-199.66,30.67-37.32,6.63-74.46,14.33-111.13,23.95-16.89,4.43-27.34,21.54-25.07,38.4.99,7.34,4,14.93,9.63,20.1,6.52,5.98,15.58,11.01,24.75,10.25,90.56-7.47,180.84-18.94,270.4-34.27,24.71-4.23,49.37-8.77,73.97-13.62,7.9-1.55,17.2-9.06,20.92-16.08s5.22-14.36,4.15-22.32c-.99-7.34-4-14.93-9.63-20.1-6.45-5.92-15.66-11.15-24.75-10.25-66.53,6.6-133.07,13.21-199.6,19.81-66.06,6.56-132.13,13.12-198.19,19.68-37.48,3.72-74.97,7.44-112.45,11.16-4.82-.18-9.31.82-13.48,3.01-4.34,1.41-8.09,3.82-11.26,7.24-6.07,6.07-10.64,16.03-10.25,24.75s3.38,18.44,10.25,24.75c6.5,5.97,15.6,11.04,24.75,10.25,75.22-6.45,150.45-12.9,225.67-19.35,74.75-6.41,149.51-12.82,224.26-19.23,42.31-3.63,84.63-7.26,126.94-10.88l-9.3-68.75c-16.45,4.73-33.24,7.97-50.19,10.25l9.3-1.25c-29.05,3.82-58.35,4.95-87.6,6.07s-60.57,2.03-90.87,2.59c-60.59,1.12-121.21,1.04-181.8-.25-17.14-.36-34.28-.82-51.42-1.38s-32.95-.48-49.2-2.57l9.3,1.25c-7.21-1-14.27-2.59-21.06-5.26l8.36,3.53c-1.25-.53-2.4-1.13-3.54-1.86l7.08,5.47c-.81-.63-1.43-1.2-2.07-1.99l5.47,7.08-.47-.79,3.53,8.36c-.28-.57-.44-1.16-.49-1.79l1.25,9.3.02-1-1.25,9.3c.09-.67.28-1.31.57-1.92l-3.53,8.36c.5-.94,1.03-1.75,1.66-2.6l-5.47,7.08c1.76-2.15,3.69-4.06,5.85-5.8l-7.08,5.47c3.32-2.53,6.91-4.51,10.73-6.17l-8.36,3.53c13.96-5.76,29.57-7.66,44.36-10.19,17.33-2.96,34.73-5.51,52.15-7.86l-9.3,1.25c47.29-6.35,94.7-11.81,142.05-17.62,13.68-1.68,27.36-3.35,41.03-5.03,4.82.18,9.31-.82,13.48-3.01,4.34-1.41,8.09-3.82,11.26-7.24,6.07-6.07,10.64-16.03,10.25-24.75-.88-19.55-15.38-34.27-35-35-39.61-1.47-80.25,12.91-111.65,36.76-8.92,6.77-17.63,13.67-25.55,21.59-8.26,8.26-15.49,17.37-22.57,26.65-11.08,14.53-20.39,30.27-28.19,46.79-9.99,21.16-18.22,43.12-24.77,65.57l67.5,18.61c4.61-23.01,7.38-46.59,7.6-70.07s-2.3-47.05-6.49-70.17c-2.12-11.69-13.5-21.43-24.45-24.45-6.2-1.67-12.41-1.67-18.61,0-5.93,1.66-11.08,4.66-15.44,9-7.53,9.4-14,18.63-18.75,29.68-4.75,11.06-8.72,22-11.35,33.74-4.36,19.46-6.62,39.43-9.28,59.18-6.26,46.51-11.62,93.13-15.63,139.89-2.11,24.6-3.87,49.24-5.29,73.89H35.64c1.35-66.1-7.59-131.95-18.3-197.03-2.91-17.67-5.98-35.31-9.06-52.94-1.37-7.83-9.21-17.28-16.08-20.92s-14.36-5.22-22.32-4.15c-17.09,2.3-30.25,16.82-30.35,34.37-.23,41.13-.46,82.25-.69,123.38-.11,20.45-.23,40.89-.34,61.34s.32,40.41,3.72,60.59c3.5,20.8,12.47,42.58,27.48,57.74,13.39,13.52,32.34,20.52,51.18,16.02,14.4-3.44,27.26-14.61,33.53-27.94,8.74-18.59,13.77-39.13,18.26-59.1,4.86-21.61,8.17-43.47,11.02-65.42,5.61-43.15,7.54-86.66,9.43-130.1.38-8.73-4.17-18.67-10.25-24.75-6.07-6.07-16.03-10.64-24.75-10.25s-18.44,3.38-24.75,10.25l-5.47,7.08c-3.17,5.46-4.76,11.35-4.78,17.67-7.79,78.93-9.1,158.48-3.81,237.62.32,4.79.62,9.58,1.04,14.36.57,6.57,1.02,13.52,3.36,19.76,4.16,11.14,10.25,19.97,20.28,26.62,7.38,4.89,16.63,7.22,25.43,7.34,14.86.21,30.49-6.7,40.14-18.02,8.85-10.38,13.92-22.35,17.54-35.41,10.88-39.23,16.85-79.77,20.69-120.25,4.04-42.5,5.17-85.2,6.28-127.86.22-8.45-3.97-18.99-10.25-24.75-5.78-5.31-12.28-8.58-20.1-9.63s-15.8-.05-22.32,4.15c-7.15,4.61-14.73,12.13-16.08,20.92-12.97,84.36-15.1,169.74-3.98,254.44.87,6.64,1.54,13.4,3.13,19.93s4.19,12.66,7.06,18.61c6.65,13.81,20.11,24.96,34.98,28.7,15.78,3.97,30.78-2.83,39.53-16.08,39.82-60.37,52.38-132.68,61.48-203.03,2.6-20.07,4.9-40.17,7.59-60.23l-1.25,9.3c3.39-25.2,7.42-50.32,13.38-75.05l-67.5-18.61c-5.58,39.62-10.03,79.36-13.71,119.2-1.67,18.13-3.22,36.27-4.72,54.41s-3.34,35.39-3.85,53.12c-.27,9.26,0,18.5,1.12,27.7,1.51,12.32,3.4,24.27,8.17,35.79,1.66,5.93,4.66,11.08,9,15.44,4.37,4.34,9.52,7.34,15.44,9,6.2,1.67,12.41,1.67,18.61,0,5.93-1.66,11.08-4.66,15.44-9,3.45-2.86,6-6.21,8.74-9.75s5.48-7.24,7.53-11.42c4.02-8.18,7.26-16.75,9.65-25.54,4.8-17.69,7.75-35.68,10.08-53.84,4.32-33.65,3.05-67.07-1.74-100.59-1.7-11.89-4.24-23.69-7.95-35.12-4.5-13.88-10.28-27.83-18.13-40.18-4.55-7.16-9.79-14.01-15.44-20.33s-12.34-11.53-19.16-16.66-15.02-9.55-23.47-12.31c-17.45-5.7-35.07.84-48.04,12.72-6.53,5.99-12.05,13.55-17.19,20.65-3.92,5.42-7.36,11.18-10.37,17.15-7.03,13.95-12.6,28.78-16.77,43.84-3.53,12.75-6.16,25.73-8.66,38.71-3.03,15.79-5.9,31.62-8.12,47.54-2.58,18.53-4.84,37.09-5.36,55.81s1.02,37.16,3.72,55.69c1.62,11.18,6.51,22.28,15.01,29.95,12.88,11.62,29.47,14.85,46.14,11.15,21.55-4.78,34-23.78,44.13-41.6,30.85-54.24,55-112.83,71.2-173.08,1.9-7.06,3.68-14.14,5.36-21.25l-68.75-9.3c-4.69,38.27-9.39,76.54-14.08,114.82-2.35,19.14-4.69,38.27-7.04,57.41-1.9,15.48-5.33,31.62-3.35,47.24.73,5.77,1.19,11.92,3.25,17.46,3.37,9.09,6.69,15.09,12.83,22.51,7.63,9.22,19.95,16.01,31.68,18.08,23.65,4.18,46.36-.57,67.61-11.33,15.88-8.04,30.19-20.17,42.35-33.08,12.7-13.48,23.97-28.57,34.21-43.97,19.45-29.25,34.42-61.88,44.8-95.41,4.83-15.58,8.53-31.51,11.05-47.62,2.92-18.63,5.23-37.61,5.2-56.5-.01-8.92-1.05-18.28-3.74-26.8-3.27-10.38-8.6-21.14-16.96-28.41-13.56-11.79-30.45-16.21-48.13-11.87-6.15,1.51-12.31,4.48-17.75,7.72-3.44,2.05-6.77,4.29-10,6.64-14.04,10.17-26.9,21.43-37.91,34.84-11.08,13.49-21.06,27.71-29.55,42.96-16.06,28.85-28.27,60.06-39.27,91.14-12.96,36.64-21.51,75.75-13.41,114.46,2.17,10.36,6.27,20.31,10.88,29.8l5.47,7.08c3.17,3.41,6.92,5.83,11.26,7.24,7.45,3.15,14.79,3.55,22.79,1.76,26.78-6,42.94-29.49,57.32-50.75,11.5-17.01,22.11-34.62,31.79-52.73,20.34-38.06,37.04-78.43,49.31-119.82,6.36-21.46,11.12-44.73,5.01-66.85-4.32-15.61-13.82-28.16-26.92-37.42-5.35-3.79-11.72-6.49-18.02-8.2s-13.49-2.68-20.11-2.34c-13.77.7-28.13,4.42-39.63,12.28-11.85,8.1-21.16,18.05-28.83,30.23-6.2,9.84-10.57,20.96-14.63,31.79-3.77,10.07-7.04,20.33-9.89,30.7-6.95,25.33-11.21,51.56-13.08,77.76-1.91,26.82-.06,53.32,3.94,79.88l3.53,8.36c2.2,4.08,5.2,7.35,9.01,9.82,5.92,4.58,13.52,7.83,21.21,7.51,21.95-.89,42.86-7.35,61.85-18.32,16.77-9.69,32.06-22.63,45.39-36.63,26.37-27.7,48.68-60.16,64.69-94.91,16.7-36.25,32.04-77.84,21.27-118.12-5.92-22.15-20.83-41.81-40.91-53-18.18-10.12-39.04-14-59.66-14.37-18.46-.33-37.21,2.22-55.31,5.61-15.75,2.95-31.24,7.3-46.18,13.09-34.61,13.41-66.8,32.3-92.98,58.95-15.09,15.36-28.97,32.96-36.76,53.16-2.54,6.58-3.73,13.92-3.73,20.93,0,10.04,2.54,17.94,6.62,26.85,5.21,11.4,15.36,21.01,25.96,27.42,20.61,12.47,45.52,12.25,68.78,11.45,18.36-.63,36.7-2.08,54.94-4.35,39.23-4.87,77.91-12.43,115.65-24.32,37.38-11.78,73.94-27.17,108.33-45.98,8.05-4.4,15.98-9.02,23.8-13.83,14.91-9.17,21.14-27.55,14.32-43.71-6.77-16.05-24.23-24.68-41.29-20.26-39.85,10.32-78.66,26.67-113.94,47.88-35.08,21.08-67.75,47.28-95.49,77.39-9.2,9.99-18.14,20.45-25.97,31.55-4.91,6.97-8.43,14.66-11.34,22.67-1.43,3.93-1.94,7.86-2.5,12.01-.59,4.4-1.17,8.43-.63,12.84-.18,4.82.82,9.31,3.01,13.48,1.41,4.34,3.82,8.09,7.24,11.26,6.31,5.8,15.82,11.44,24.75,10.25,7.88-1.05,15.49-1.95,23.06-4.31s15.34-5.79,22.81-9.04c8.97-3.9,17.79-8.17,26.52-12.57,17.23-8.68,34.05-18.17,50.39-28.41,35.16-22.02,68.45-47.48,98.97-75.57,14.4-13.25,28.86-27.05,41.46-42.06,10.86-12.93,20.22-28.13,19.35-45.79-1.08-22.04-13.49-41.29-35.12-48.12-14.56-4.6-30.01-1-44.42,2.36-9.97,2.32-19.82,5.16-29.51,8.44-21.07,7.13-41.64,16.07-61.47,26.14-40.3,20.46-77.61,46.21-114.66,71.94-7.6,5.28-13.56,11.75-16.08,20.92-2.31,8.38-1.27,19.53,3.53,26.97s11.99,14.05,20.92,16.08c9.12,2.08,18.77,1.41,26.97-3.53,53-31.92,106.04-64.54,152.41-105.83,11.01-9.8,21.56-20.12,31.47-31.03,4.9-5.39,9.64-10.92,14.2-16.6,3.85-4.79,7.59-9.66,11.3-14.55,2.02-2.67,3.92-5.25,5.37-8.28,3.95-8.26,5.95-14.58,6.27-23.9.38-11.14-4.98-21.88-12.43-29.74s-20.18-12.19-31.05-11.71c-6.6.29-13.56,1.81-20.14,2.93-16.33,2.75-32.55,6.14-48.61,10.14-38.58,9.62-75.88,23.08-112.26,39.07l-7.08,5.47c-3.41,3.17-5.83,6.92-7.24,11.26-2.93,6.95-4.15,15.4-1.76,22.79,1.87,5.77,4.9,10.97,9,15.44,5.43,5.92,16.62,10.95,24.75,10.25,65.76-5.67,131.32-14.54,196.2-26.65,17.73-3.31,35.41-6.87,53.04-10.68l-26.97-63.97c-8.57,3.7-17.16,7.36-25.75,10.99l8.36-3.53c-59.41,25.06-119.51,48.51-180.45,69.59-60.87,21.05-122.57,39.74-185.08,55.28-35.34,8.78-70.93,16.54-106.74,23.18,6.2,22.5,12.41,45,18.61,67.5,34.8-7.47,69.87-13.58,105.14-18.32l-9.3,1.25c53.82-7.18,108.52-12.03,162.86-11.69,14.11.09,28.21.8,42.21,2.61l-9.3-1.25c16.67,2.25,33.05,6.15,48.6,12.63l-8.36-3.53c4.56,1.95,9.46,3.86,13.44,6.86l-7.08-5.47c.54.43,1.03.91,1.48,1.43l-5.47-7.08c.45.52.83,1.09,1.14,1.71l-3.53-8.36c.45,1.08.69,1.98.85,3.14l-1.25-9.3c.04,1.15-.01,2.18-.15,3.32l1.25-9.3c-1.35,7.28-4.41,14.43-7.25,21.24,1.18-2.79,2.35-5.57,3.53-8.36-11.78,27.74-29.19,52.46-44.27,78.42-8.37,14.41-16.22,29.39-21.72,45.16-2.1,6.02-3.6,12.2-4.48,18.51-.79,5.67-1.74,11.38-1.81,17.12s.83,11.65,1.73,17.35c3.03,19.22,15.9,37.6,33.05,46.88,19.63,10.62,41.38,10.53,62.69,5.93,15.06-3.25,29.77-8.86,44.25-14.05,15.45-5.54,30.75-11.51,45.88-17.87,36.32-15.27,71.73-32.31,105.77-52.2,6.58-3.85,11.39-9.8,14.32-16.74s4.15-15.4,1.76-22.79c-1.87-5.77-4.9-10.97-9-15.44-5.28-5.75-16.78-11.17-24.75-10.25-21.26,2.46-41.43,7.17-61.39,14.89s-39.15,16.78-58.41,25.87c-9.66,4.56-19.35,9.06-29.18,13.23l8.36-3.53c-18.91,7.98-38.44,14.66-58.85,17.43l9.3-1.25c-6.8.87-13.62,1.31-20.48,1.25,8.25,19.92,16.5,39.83,24.75,59.75,19.53-22.55,41.26-43.1,64.87-61.34l-7.08,5.47c11.35-8.72,23.11-17.09,33.52-26.95,6.09-5.77,11.22-12.2,16.23-18.94,4.97-6.69,8.2-13.98,11.25-21.74,2.98-7.58,4.41-16.28,4.58-24.34.29-13.94-5.11-29.11-15.7-38.49-16.28-14.41-38.56-17.68-59.56-15.29-57.8,6.6-114.03,25.13-165.3,52.49-28.39,15.16-54.79,33.6-79.59,54.08-6.53,5.39-10.25,16.63-10.25,24.75,0,8.58,3.81,18.84,10.25,24.75s15.43,10.67,24.75,10.25c3.1-.42,6.2-.83,9.3-1.25,5.93-1.66,11.08-4.66,15.44-9,5.6-4.34,11.21-8.68,16.82-13.01l-7.08,5.47c53.79-41.56,107.96-82.78,165.15-119.59,16.19-10.42,32.61-20.47,49.3-30.08-15.96-15.96-31.92-31.92-47.89-47.89-37.6,51.68-75.43,103.74-104.06,161.09-9.2,18.43-17.43,37.39-24.7,56.67-.42,3.1-.83,6.2-1.25,9.3-.18,4.82.82,9.31,3.01,13.48,3.08,7.3,7.7,12.24,14.32,16.74,6.39,4.34,15.44,6.71,23.15,6.74,8.83.03,15.69-2.44,23.55-5.94s15.06-10.04,21.35-16.29c10.83-10.77,21.65-21.54,32.48-32.31,21.49-21.37,42.97-42.74,64.46-64.12,12.16-12.09,24.32-24.19,36.48-36.28-18.32-14.14-36.65-28.28-54.97-42.41-25.82,40-52.88,79.19-81.15,117.5-8.08,10.94-16.25,21.81-24.52,32.61,20.15,11.78,40.3,23.55,60.44,35.33,13-23.06,24.13-46.94,34.26-71.38,5.53-13.34,12.62-27.74,12.96-42.41.29-12.86-5.03-25.65-14.21-34.65-8.22-8.05-18.69-12.59-29.93-14.1-18.4-2.47-34.49,4.88-50.67,12.71-9.93,4.81-19.59,10.18-28.97,15.97-21.18,13.08-41.06,28.32-60.22,44.19-19.37,16.03-37.84,33.1-56.28,50.17-6.15,5.7-10.63,16.36-10.25,24.75.35,7.9,2.65,14.92,7.51,21.21,10.23,13.24,30.35,18.47,45.15,9.01,38.43-24.57,76.87-49.13,115.3-73.7-14.14-18.32-28.28-36.65-42.41-54.97-22.27,22.81-38.72,51.37-46.9,82.2-3.63,13.69,1.44,28.21,12.54,36.79,5.03,3.89,10.26,6.04,16.55,6.89,7.04.95,16.39.31,22.32-4.15,57.87-43.58,116.22-86.63,173.33-131.21,12.66-9.88,25.08-20.09,36.75-31.13,12.88-12.18,25.8-25.65,34.48-41.22,11.81-21.17,17.13-48.94,4.49-71.02-8.79-15.37-25.67-24.01-43.12-24.01-8.98,0-18.11,2.24-26.77,4.56-35.04,9.4-73.14,28.74-82.11,67.29-2.11,9.07-1.24,18.82,3.53,26.97,4.25,7.26,12.57,14.18,20.92,16.08,8.96,2.04,19.02,1.6,26.97-3.53,7.49-4.83,14.01-11.99,16.08-20.92.55-2.38,1.29-4.68,2.23-6.94l-3.53,8.36c1.44-3.25,3.24-6.25,5.42-9.06l-5.47,7.08c2.63-3.27,5.62-6.13,8.92-8.72l-7.08,5.47c5.79-4.41,12.2-7.82,18.88-10.68l-8.36,3.53c11.32-4.74,23.81-8.85,36.01-10.51l-9.3,1.25c2.1-.23,4.15-.29,6.26-.1-3.1-.42-6.2-.83-9.3-1.25,1.35.19,2.6.49,3.89.93l-8.36-3.53c1.27.55,2.37,1.18,3.47,2.02l-7.08-5.47c.81.73,1.47,1.43,2.14,2.28l-5.47-7.08c.6.89,1.08,1.75,1.55,2.71l-3.53-8.36c.82,2.01,1.31,4.03,1.61,6.18l-1.25-9.3c.29,2.98.2,5.93-.14,8.9l1.25-9.3c-.64,4.52-1.89,8.82-3.63,13.04l3.53-8.36c-2.65,6.05-6.15,11.6-10.14,16.85l5.47-7.08c-17.37,22.4-40.49,40.54-62.78,57.78l7.08-5.47c-41.59,32.09-83.75,63.46-125.7,95.09-12.14,9.15-24.29,18.3-36.43,27.45,17.14,13.18,34.28,26.35,51.41,39.53,1.81-6.83,4.08-13.51,6.8-20.03l-3.53,8.36c5.08-11.94,11.62-23.14,19.51-33.44l-5.47,7.08c3.62-4.65,7.48-9.07,11.59-13.29,12.23-12.53,13.38-32.18,2.74-45.96s-30.35-18.47-45.15-9.01c-38.43,24.57-76.87,49.13-115.3,73.7,14.14,18.32,28.28,36.65,42.41,54.97,23.57-21.82,47.22-43.62,72.66-63.28-2.36,1.82-4.72,3.65-7.08,5.47,23.65-18.19,48.91-34.63,76.37-46.47l-8.36,3.53c3.84-1.6,7.7-2.95,11.82-3.59l-9.3,1.25c1.98-.22,3.9-.28,5.89-.09l-9.3-1.25c1.68.26,3.25.67,4.83,1.29l-8.36-3.53c1.54.7,2.92,1.51,4.26,2.54l-7.08-5.47c.75.66,1.41,1.31,2.06,2.06l-5.47-7.08c.79,1.05,1.4,2.1,1.93,3.31l-3.53-8.36c.23.61.41,1.23.53,1.88-.42-3.1-.83-6.2-1.25-9.3.18,1.38.22,2.57.13,3.95l1.25-9.3c-.89,6.28-3.76,12.42-6.02,18.31s-4.69,11.9-7.18,17.8c1.18-2.79,2.35-5.57,3.53-8.36-8.62,20.32-18.36,40.13-29.2,59.36-4.5,7.99-5.98,18.07-3.53,26.97,2.24,8.12,8.51,16.92,16.08,20.92,8.12,4.29,17.96,6.44,26.97,3.53l8.36-3.53c5.26-3.11,9.44-7.3,12.56-12.56,28.94-37.8,56.72-76.49,83.24-116.02,7.58-11.3,15.05-22.66,22.43-34.09,4.6-7.12,6.13-18.92,3.53-26.97-2.39-7.38-6.38-13.42-12.54-18.18-13.67-10.56-33.5-9.66-45.96,2.74-36.81,36.61-73.62,73.23-110.43,109.84-5.16,5.14-10.33,10.27-15.49,15.41-4.89,4.86-9.58,10.11-15.04,14.35l7.08-5.47c-2.13,1.56-4.29,2.89-6.72,3.93l8.36-3.53c-1.3.48-2.57.84-3.95,1.07l9.3-1.25c-1,.09-1.89.09-2.9,0l9.3,1.25c-1-.18-1.83-.43-2.78-.81,2.79,1.18,5.57,2.35,8.36,3.53-.62-.29-1.2-.65-1.75-1.06,5.36,13.18,10.72,26.35,16.08,39.53,2.24-5.96,4.6-11.87,7.07-17.74l-3.53,8.36c22.91-54.09,55.11-103.5,89.01-151.25,9.61-13.54,19.38-26.98,29.15-40.41l3.53-8.36c1.46-4.65,1.67-9.3.63-13.96-.99-7.34-4-14.93-9.63-20.1-11.54-10.6-28.51-13.48-42.41-5.47-64.13,36.92-124.08,80.49-182.82,125.36-18.57,14.18-37.04,28.49-55.52,42.79,16.5,16.5,33,33,49.5,49.5,3.7-3.05,7.44-6.04,11.22-8.98l-7.08,5.47c30.07-23.18,63.07-42.36,98.05-57.13l-8.36,3.53c34.37-14.4,70.62-24.72,107.57-29.8l-9.3,1.25c7.92-1.04,15.85-1.57,23.8-.61l-9.3-1.25c3.39.49,6.65,1.21,9.82,2.52l-8.36-3.53c1.62.76,3.09,1.62,4.5,2.71-2.36-1.82-4.72-3.65-7.08-5.47.81.71,1.5,1.41,2.19,2.22l-5.47-7.08c.66.91,1.19,1.78,1.7,2.79l-3.53-8.36c.72,1.75,1.16,3.47,1.42,5.34l-1.25-9.3c.2,2.27.13,4.49-.13,6.76.42-3.1.83-6.2,1.25-9.3-.6,4.36-1.76,8.52-3.45,12.58l3.53-8.36c-2.02,4.61-4.62,8.85-7.65,12.87l5.47-7.08c-7.75,10.01-17.59,18.06-27.55,25.77l7.08-5.47c-15.27,11.78-30.54,23.43-44.79,36.44-12.9,11.78-25.07,24.33-36.5,37.53-3.91,4.51-7.39,9.61-9,15.44-2.1,7.62-1.27,15.6,1.76,22.79,5.4,12.79,17.91,21.4,31.99,21.52,47.55.4,90.68-19.91,132.7-39.77,10.86-5.13,21.74-10.24,32.81-14.92l-8.36,3.53c19.14-8.05,38.91-14.76,59.56-17.58l-9.3,1.25c1.08-.14,2.17-.27,3.25-.4-5.89-21.74-11.78-43.48-17.67-65.22-31.37,18.33-63.94,34.53-97.41,48.67l8.36-3.53c-16.54,6.96-33.29,13.44-50.21,19.41-15.48,5.46-31.3,11.61-47.63,13.87l9.3-1.25c-5.05.63-10.07.81-15.13.23l9.3,1.25c-3.47-.48-6.8-1.32-10.05-2.63,2.79,1.18,5.57,2.35,8.36,3.53-2.61-1.15-5-2.55-7.27-4.27l7.08,5.47c-1.95-1.57-3.69-3.28-5.28-5.22,1.82,2.36,3.65,4.72,5.47,7.08-1.85-2.39-3.33-4.94-4.54-7.72,1.18,2.79,2.35,5.57,3.53,8.36-1.38-3.42-2.25-6.93-2.76-10.58l1.25,9.3c-.61-5.14-.48-10.27.14-15.4l-1.25,9.3c1.16-8.62,3.62-16.96,6.97-24.97l-3.53,8.36c13.15-30.63,33.53-57.49,49.31-86.72,3.88-7.19,7.45-14.52,10.66-22.03,5.43-12.72,10.76-24.99,12.03-38.9.78-8.54-1.71-18.79-6.61-25.83-5.4-7.78-12.25-13.72-20.74-17.81-10.06-4.84-20.54-9.14-31.24-12.37-35.41-10.68-73.4-11.46-110.09-10.3s-76.63,4.06-114.72,8.53c-45.8,5.37-91.37,12.66-136.46,22.34-8.3,1.78-16.72,8.92-20.92,16.08s-6.25,18.56-3.53,26.97,7.99,16.64,16.08,20.92c8.72,4.61,17.27,5.33,26.97,3.53,67.25-12.46,133.71-28.93,199.22-48.55,65.37-19.57,129.8-42.23,193.34-67.07,38.22-14.94,76.13-30.7,113.82-46.95,7.18-3.09,14.41-13.55,16.08-20.92,1.78-7.83,1.37-15.36-1.76-22.79-2.84-6.72-7.68-13.23-14.32-16.74-8.6-4.54-17.4-5.59-26.97-3.53-49.28,10.63-98.97,19.32-148.93,26.05l9.3-1.25c-30.25,4.06-60.6,7.4-91.01,10.02,5.89,21.74,11.78,43.48,17.67,65.22,3.23-1.42,6.48-2.82,9.73-4.19l-8.36,3.53c48.68-20.44,100.15-35.43,152.44-43.04l-9.3,1.25c1.2-.13,2.31-.2,3.52-.16l-9.3-1.25c.76.05,1.5.21,2.22.48l-8.36-3.53c.63.24,1.21.58,1.74,1.01l-7.08-5.47c.42.35.79.74,1.1,1.19l-5.47-7.08.4.68-3.53-8.36c.33.79.51,1.45.64,2.29l-1.25-9.3c.05.89.02,1.68-.08,2.57l1.25-9.3c-.29,1.57-.75,3.03-1.36,4.5l3.53-8.36c-1.81,3.91-4.55,7.23-7.17,10.63l5.47-7.08c-22.49,29.01-49.46,54.08-78.43,76.5l7.08-5.47c-36.89,28.42-76.75,52.61-116.59,76.6,11.78,20.15,23.55,40.3,35.33,60.44,35.54-24.68,71.29-49.35,109.72-69.4,10.74-5.6,21.68-10.81,32.83-15.55l-8.36,3.53c22.28-9.38,46.18-17.88,70.25-21.13l-9.3,1.25c2.35-.25,4.63-.33,6.98-.08l-9.3-1.25c1.53.26,2.93.64,4.37,1.23l-8.36-3.53c.94.48,1.74.95,2.59,1.56l-7.08-5.47c.96.81,1.78,1.66,2.55,2.65l-5.47-7.08c.71,1.04,1.29,2.09,1.81,3.24l-3.53-8.36c.58,1.5.97,2.99,1.24,4.58l-1.25-9.3c.23,1.95.23,3.83.02,5.78l1.25-9.3c-.34,2.15-.95,4.16-1.77,6.18l3.53-8.36c-1.32,2.93-2.99,5.59-4.9,8.18,1.82-2.36,3.65-4.72,5.47-7.08-5.88,7.6-12.82,14.49-19.52,21.37s-13.91,13.94-21.11,20.65c-14.25,13.3-29.14,25.91-44.55,37.83l7.08-5.47c-39.78,30.65-83.45,57.43-129.72,77.13l8.36-3.53c-7.93,3.32-16.03,6.09-24.56,7.39l9.3-1.25-1.27.17,35,35c-.34-2.76-.33-5.42,0-8.19l-1.25,9.3c.49-3.12,1.35-6.08,2.51-9.01-1.18,2.79-2.35,5.57-3.53,8.36,2.56-6.01,6.13-11.42,10.09-16.6l-5.47,7.08c19.36-24.84,42.58-46.94,67.47-66.17l-7.08,5.47c27.4-21.05,57.38-38.56,89.19-52.05l-8.36,3.53c17.84-7.51,36.18-13.73,54.92-18.58l-26.97-63.97c-23.45,14.42-47.97,26.99-73.31,37.73l8.36-3.53c-48.11,20.27-98.87,33.8-150.58,40.82,3.1-.42,6.2-.83,9.3-1.25-15.32,2.05-30.71,3.54-46.14,4.45-15.48.91-31.52,2.13-46.95.23l9.3,1.25c-5.03-.71-9.92-1.87-14.62-3.84l8.36,3.53c-2.83-1.28-5.47-2.83-7.97-4.68l7.08,5.47c-2.43-1.91-4.59-4.04-6.49-6.48l5.47,7.08c-1.4-1.92-2.55-3.89-3.5-6.06l3.53,8.36c-.74-1.89-1.27-3.78-1.6-5.78l1.25,9.3c-.28-2.35-.26-4.62.01-6.97l-1.25,9.3c.51-3.2,1.45-6.2,2.7-9.19l-3.53,8.36c3.2-7.06,7.76-13.41,12.45-19.55l-5.47,7.08c10.11-13.08,21.88-24.71,34.92-34.86l-7.08,5.47c15.46-11.91,32.44-21.62,50.39-29.26l-8.36,3.53c21.5-9.05,44.15-15.08,67.26-18.2l-9.3,1.25c15.48-2.02,31.22-3.07,46.75-1.03l-9.3-1.25c7.17,1.01,14.19,2.7,20.91,5.44l-8.36-3.53c4.65,1.98,8.99,4.41,13.03,7.46l-7.08-5.47c3.51,2.76,6.62,5.87,9.35,9.41l-5.47-7.08c2.45,3.31,4.48,6.83,6.15,10.61-1.18-2.79-2.35-5.57-3.53-8.36,2.11,5.06,3.47,10.3,4.24,15.73l-1.25-9.3c1.04,8.11.78,16.26-.27,24.35l1.25-9.3c-2.35,16.89-8.08,33.01-14.64,48.68l3.53-8.36c-11.12,26.28-25.56,51.04-42.96,73.66l5.47-7.08c-12.68,16.35-26.69,31.86-43.05,44.61l7.08-5.47c-8.95,6.87-18.53,12.82-28.93,17.24l8.36-3.53c-7.53,3.11-15.33,5.32-23.4,6.43l9.3-1.25c-2.6.32-5.19.53-7.8.64,11.25,8.57,22.5,17.13,33.75,25.7-.26-1.73-.51-3.46-.75-5.19l1.25,9.3c-3.81-28.64-3.57-57.63.2-86.25l-1.25,9.3c3.95-29.17,11.15-58.43,22.49-85.64l-3.53,8.36c3.23-7.61,7.02-14.93,11.99-21.56l-5.47,7.08c3.18-4.1,6.72-7.8,10.82-10.99l-7.08,5.47c3.04-2.24,6.27-4.07,9.75-5.54l-8.36,3.53c3.51-1.39,7.1-2.35,10.84-2.88l-9.3,1.25c3.34-.39,6.64-.4,9.98.03l-9.3-1.25c2.61.41,5.09,1.07,7.55,2.05l-8.36-3.53c2.13.93,4.08,2.04,5.96,3.41l-7.08-5.47c2.08,1.63,3.89,3.45,5.53,5.52l-5.47-7.08c1.5,2.04,2.73,4.19,3.76,6.51l-3.53-8.36c1.34,3.28,2.19,6.65,2.7,10.15l-1.25-9.3c.75,6.08.47,12.16-.34,18.22l1.25-9.3c-2.1,14.44-6.88,28.53-11.46,42.33-5.01,15.12-10.65,30.02-16.84,44.7l3.53-8.36c-8.84,20.83-18.82,41.18-29.95,60.89-10.93,19.35-22.73,38.55-36.18,56.26l5.47-7.08c-3.59,4.64-7.45,9.01-12.06,12.66l7.08-5.47c-2.56,1.93-5.25,3.55-8.2,4.81l8.36-3.53c-1.67.65-3.35,1.16-5.1,1.55,13.18,5.36,26.35,10.72,39.53,16.08-.71-1.46-1.38-2.93-2.03-4.41l3.53,8.36c-3.23-7.72-5.35-15.75-6.52-24.03l1.25,9.3c-1.5-11.57-1.12-23.2.41-34.75l-1.25,9.3c4.7-33.58,17.76-66.11,30.85-97.2-1.18,2.79-2.35,5.57-3.53,8.36,10.5-24.81,22.74-49.06,39.16-70.52l-5.47,7.08c9.16-11.84,19.54-22.65,31.39-31.83l-7.08,5.47c5.88-4.49,12.08-8.97,18.85-12.04l-8.36,3.53c1.88-.77,3.74-1.35,5.73-1.72l-9.3,1.25c1.49-.18,2.92-.22,4.42-.09l-9.3-1.25c1.36.19,2.63.51,3.91.98l-8.36-3.53c1.45.62,2.74,1.38,3.99,2.34l-7.08-5.47c1.22,1.03,2.28,2.15,3.27,3.41l-5.47-7.08c1.33,1.82,2.4,3.76,3.31,5.82l-3.53-8.36c1.63,3.93,2.63,8.02,3.25,12.22l-1.25-9.3c1.01,7.62.58,15.35.16,23-.47,8.74-1.32,17.45-2.47,26.13l1.25-9.3c-4.04,29.6-11.98,58.54-23.52,86.09l3.53-8.36c-11.33,26.77-25.99,52.03-43.76,75.04l5.47-7.08c-9.82,12.62-20.57,24.52-33.24,34.36l7.08-5.47c-7.07,5.39-14.61,10.03-22.81,13.5,2.79-1.18,5.57-2.35,8.36-3.53-6.06,2.47-12.31,4.22-18.8,5.1,3.1-.42,6.2-.83,9.3-1.25-4.9.58-9.81.71-14.71.13l9.3,1.25c-2.76-.41-5.38-1.05-7.98-2.06l8.36,3.53c-2.03-.9-3.88-1.97-5.64-3.32l7.08,5.47c-1.4-1.17-2.64-2.44-3.79-3.87l5.47,7.08c-1.26-1.7-2.28-3.47-3.15-5.39l3.53,8.36c-1.33-3.17-2.15-6.44-2.67-9.84l1.25,9.3c-1.54-11.56.4-23.17,1.81-34.64,1.83-14.94,3.66-29.87,5.5-44.81,3.66-29.87,7.33-59.74,10.99-89.61,2.06-16.8,4.12-33.61,6.18-50.41.97-7.93-4.54-19.51-10.25-24.75s-12.28-8.58-20.1-9.63-15.8-.05-22.32,4.15c-7.51,4.84-13.97,11.98-16.08,20.92-9,38.08-21.15,75.35-36.3,111.42l3.53-8.36c-6.68,15.84-13.92,31.44-21.73,46.75-3.81,7.46-7.75,14.86-11.83,22.18-4,7.18-7.86,14.63-12.74,21.26,1.82-2.36,3.65-4.72,5.47-7.08-1.8,2.33-3.75,4.43-6.06,6.28,2.36-1.82,4.72-3.65,7.08-5.47-1.39,1.01-2.79,1.86-4.35,2.57l8.36-3.53c-1.53.6-3.04,1.02-4.65,1.29l9.3-1.25c-1.61.18-3.14.19-4.74,0l9.3,1.25c-1.24-.22-2.38-.54-3.55-1.01l8.36,3.53c-.85-.42-1.59-.86-2.37-1.41l7.08,5.47c-.78-.66-1.41-1.3-2.07-2.08l5.47,7.08c-.63-.89-1.13-1.75-1.61-2.73l3.53,8.36c-1.65-3.95-2.14-8.21-2.71-12.42l1.25,9.3c-3.79-29.09-2.21-58.45,1.65-87.44l-1.25,9.3c2.85-21.05,6.69-41.98,10.96-62.78,3.67-17.87,8.11-35.66,15.19-52.52l-3.53,8.36c4.41-10.29,9.8-20.08,16.61-28.99l-5.47,7.08c3.43-4.4,7.11-8.81,11.43-12.36l-7.08,5.47c1.22-.9,2.43-1.65,3.81-2.27l-8.36,3.53c.69-.28,1.39-.48,2.12-.61l-9.3,1.25c1.22-.14,2.26-.15,3.48-.04l-9.3-1.25c1.58.28,3.03.72,4.53,1.31l-8.36-3.53c5.1,2.27,9.81,5.37,14.23,8.77l-7.08-5.47c5.78,4.56,10.9,9.79,15.45,15.57l-5.47-7.08c6.46,8.38,11.56,17.63,15.69,27.35l-3.53-8.36c6.74,16.19,10.72,33.34,13.05,50.69l-1.25-9.3c3.89,29.8,3.84,59.97-.08,89.76l1.25-9.3c-2.58,19-5.87,39.05-13.18,56.88l3.53-8.36c-1.73,4.03-3.77,7.85-6.39,11.38l5.47-7.08c-1.8,2.29-3.76,4.35-6,6.21,19.5,5.15,39,10.3,58.5,15.44-3.52-8.5-5.7-17.38-6.92-26.48l1.25,9.3c-1.75-14.05-1.34-28.21-.37-42.31,1.05-15.17,2.42-30.33,3.68-45.49,2.6-31.17,5.37-62.32,8.72-93.42,1.9-17.63,4-35.24,6.36-52.82l-1.25,9.3c.5-3.7,1.01-7.4,1.53-11.1,1.46-4.65,1.67-9.3.63-13.96-.21-4.66-1.6-9-4.15-13.01-4.25-7.26-12.57-14.18-20.92-16.08-8.96-2.04-19.02-1.6-26.97,3.53-7.53,4.85-13.93,11.98-16.08,20.92-12.13,50.35-16.51,102.15-23.38,153.37l1.25-9.3c-6.12,45.29-14.49,90.7-32.34,133.02l3.53-8.36c-6.47,15.17-14.13,29.78-23.21,43.55,13.18-5.36,26.35-10.72,39.53-16.08-1.15-.29-2.25-.65-3.34-1.11l8.36,3.53c-1.29-.62-2.47-1.33-3.63-2.19l7.08,5.47c-1.34-1.09-2.51-2.28-3.61-3.62l5.47,7.08c-1.84-2.41-3.25-5.02-4.43-7.81l3.53,8.36c-2.23-5.58-3.47-11.45-4.29-17.4l1.25,9.3c-7.88-59.37-9.65-119.52-5.16-179.25,1.28-17,3.07-33.95,5.33-50.84l-1.25,9.3c.74-5.48,1.54-10.95,2.38-16.41l-68.75-9.3c-1.38,53.39-2.84,106.9-9.93,159.9l1.25-9.3c-2.13,15.73-4.74,31.4-8.02,46.93-1.62,7.66-3.39,15.29-5.34,22.87-1.84,7.15-3.58,14.44-6.43,21.26l3.53-8.36c-1.24,2.78-2.68,5.37-4.53,7.79l5.47-7.08c-1.14,1.38-2.35,2.63-3.74,3.76l7.08-5.47c-1.33.97-2.69,1.77-4.18,2.46l8.36-3.53c-1.52.61-3.03,1.05-4.64,1.35l9.3-1.25c-1.59.2-3.1.23-4.69.06l9.3,1.25c-1.23-.21-2.37-.53-3.53-1l8.36,3.53c-.86-.42-1.6-.87-2.38-1.42l7.08,5.47c-.8-.67-1.47-1.34-2.14-2.14l5.47,7.08c-.83-1.14-1.48-2.29-2.05-3.57l3.53,8.36c-.91-2.36-1.42-4.74-1.77-7.24l1.25,9.3c-1.94-16.23-2.4-32.79-3.13-49.12-.74-16.59-1.2-33.2-1.36-49.81-.33-33.22.48-66.45,2.45-99.61,1.12-18.92,2.63-37.81,4.49-56.67H23.14c-1.93,44.33-3.93,88.71-9.77,132.73l1.25-9.3c-2.39,17.73-5.38,35.38-9.28,52.84-3.71,16.58-7.62,33.82-14.08,49.58l3.53-8.36c-1.16,2.69-2.51,5.25-4.26,7.61l5.47-7.08c-.98,1.22-2.02,2.3-3.22,3.29l7.08-5.47c-1,.74-2,1.34-3.12,1.88l8.36-3.53c-1.27.5-2.5.83-3.85,1.04l9.3-1.25c-1.06.08-2.03.08-3.09,0l9.3,1.25c-1.76-.26-3.35-.73-4.99-1.41l8.36,3.53c-1.65-.8-3.16-1.73-4.64-2.81l7.08,5.47c-2.37-1.87-4.43-3.98-6.32-6.33l5.47,7.08c-3.69-4.85-6.61-10.21-9.02-15.8l3.53,8.36c-3.69-8.89-5.87-18.22-7.2-27.74l1.25,9.3c-1.69-12.84-1.87-25.79-1.82-38.71.06-15.35.17-30.69.26-46.04.17-31.26.35-62.51.52-93.77.1-17.63.2-35.25.29-52.88l-68.75,9.3c6.24,35.74,12.45,71.49,17.3,107.45l-1.25-9.3c5.91,44.15,9.71,88.64,8.81,133.23-.18,8.86,4.03,18.53,10.25,24.75s16.03,10.64,24.75,10.25,18.44-3.38,24.75-10.25,9.7-15.1,10.25-24.75c3.07-53.26,7.75-106.42,13.99-159.4,1.77-15.04,3.67-30.06,5.68-45.07l-1.25,9.3c3.79-28.2,6.14-58.01,17.1-84.56l-3.53,8.36c3.14-7.39,7-14.37,11.84-20.79l-5.47,7.08c.47-.61.94-1.21,1.43-1.81-19.5-5.15-39-10.3-58.5-15.44.89,4.91,1.67,9.83,2.35,14.77l-1.25-9.3c3.77,28.35,3.81,57.05.12,85.41l1.25-9.3c-.97,7.19-2.16,14.34-3.58,21.45-1.86,9.3-1.38,18.58,3.53,26.97,4.25,7.26,12.57,14.18,20.92,16.08,8.96,2.04,19.02,1.6,26.97-3.53s13.46-11.94,16.08-20.92c4.41-15.11,9.51-30,15.59-44.51l-3.53,8.36c8.92-21.09,19.92-41.27,33.85-59.48l-5.47,7.08c9.99-12.91,21.33-24.6,34.21-34.64l-7.08,5.47c11.45-8.81,23.87-16.24,37.16-21.92l-8.36,3.53c11.8-4.95,24.12-8.44,36.81-10.14l-9.3,1.25c7.1-.89,14.23-1.22,21.38-.96V31.87c-58.05,7.11-116.15,13.87-174.14,21.46-31.36,4.1-62.76,8.4-93.79,14.57-5.4,1.07-10.8,2.29-16.02,4.05-7.66,2.58-15.71,5.65-22.38,10.34-9.96,7-18.66,14.91-23.49,26.36-3.69,8.75-4.68,18.26-1.87,27.51,3.04,10.01,10.32,19.08,19.47,24.25,16.06,9.08,35.55,11.38,53.62,12.49,14.42.89,28.9,1.18,43.35,1.63,29.35.91,58.7,1.54,88.06,1.89,58.95.7,117.92.26,176.86-1.33,29.28-.79,58.58-1.71,87.84-3.25,30.74-1.62,61.67-4.44,91.8-10.94,6.82-1.47,13.58-3.18,20.28-5.11,16.81-4.83,27.38-21.22,25.07-38.4-.99-7.34-4-14.93-9.63-20.1-6.5-5.97-15.6-11.04-24.75-10.25-75.22,6.45-150.45,12.9-225.67,19.35-74.75,6.41-149.51,12.82-224.26,19.23-42.31,3.63-84.63,7.26-126.94,10.88v70c66.53-6.6,133.07-13.21,199.6-19.81,66.06-6.56,132.13-13.12,198.19-19.68,37.48-3.72,74.97-7.44,112.45-11.16l-9.3-68.75c-46.7,9.19-93.6,17.29-140.68,24.26-13.55,2.01-27.11,3.92-40.69,5.74l9.3-1.25c-51.08,6.84-102.33,12.39-153.7,16.62l9.3,68.75c69.49-18.23,140.52-29.47,211.52-39.89,71.28-10.46,142.77-20.18,213.21-35.57,39.23-8.57,80.32-17.85,114.36-40.17,6.48-4.25,11.28-9.54,14.32-16.74s4.15-15.4,1.76-22.79c-1.87-5.77-4.9-10.97-9-15.44-5.63-6.14-16.43-10.66-24.75-10.25-54.16,2.67-108.28,6.34-162.3,11.03-53.79,4.68-107.5,10.36-161.08,17.05-33.03,4.12-66.01,8.59-98.94,13.39l18.61,67.5c50.85-9.36,101.7-18.72,152.55-28.08,50.85-9.36,101.7-18.72,152.55-28.08,28.77-5.3,57.06-11.01,83.14-24.99l7.08-5.47c3.41-3.17,5.83-6.92,7.24-11.26,2.93-6.95,4.15-15.4,1.76-22.79-1.87-5.77-4.9-10.97-9-15.44-5.56-6.05-16.5-10.77-24.75-10.25-51.93,3.29-103.85,6.58-155.78,9.87-51.69,3.27-103.38,6.55-155.07,9.82-29.37,1.86-58.74,3.72-88.11,5.58l9.3,68.75c1.85-.25,3.69-.5,5.54-.75l-9.3,1.25c73.45-9.86,147.39-16.5,221.51-17.7,20.97-.34,41.94-.23,62.9.34V-9.87c-63.59,1.19-127.18,2.39-190.77,3.58L75.59-2.74C39.79-2.07,3.99-1.4-31.81-.73v70c66.92-3.34,133.84-6.69,200.76-10.03l56.55-2.83c9.25-.46,18.09-3.59,24.75-10.25,6.07-6.07,10.64-16.03,10.25-24.75s-3.38-18.44-10.25-24.75c-6.76-6.21-15.34-10.45-24.75-10.25-56.52,1.2-113.04,2.39-169.56,3.59-16.01.34-32.03.68-48.04,1.02l9.3,68.75c53.92-7.39,107.83-14.77,161.75-22.16,15.34-2.1,30.68-4.2,46.02-6.3l-18.61-67.5c-39.3,10.1-78.59,20.2-117.89,30.3C50.82,3.78,11.86,12.3-22.24,31.75c-3.45,1.97-6.9,4.02-10.12,6.36-3.49,2.54-7.27,5.05-10.25,8.24-5.43,5.82-8.62,11.38-11.33,18.7-4.01,10.84-2.12,24.11,3.63,33.96s15.21,16.11,25.99,20.17c5.46,2.05,11.43,2.48,17.16,3.15,5,.59,10.01,1.06,15.02,1.48,10.01.83,20.05,1.35,30.09,1.63,39.15,1.09,78.28-1.51,117.33-4.02,44.12-2.84,88.36-5.57,132.56-2.97l-9.3-68.75c-15.68,2.41-31.39,4.67-47.12,6.79l9.3-1.25c-50.88,6.83-101.96,12.13-153.17,15.85-14.43,1.05-28.87,1.97-43.31,2.77l9.3,68.75c21.76-4.45,43.66-8.16,65.67-11.13l-9.3,1.25c51.05-6.81,102.96-10.07,154.46-8.07,13.79.54,27.55,1.6,41.23,3.43l-9.3-1.25c22.51,3.1,44.68,8.43,65.68,17.21l-8.36-3.53c2.08.91,4.02,1.95,5.86,3.27l-7.08-5.47c.98.78,1.85,1.59,2.66,2.55l-5.47-7.08c.53.74.92,1.41,1.29,2.24l-3.53-8.36c.2.53.34,1.08.41,1.64l-1.25-9.3c.07.59.06,1.18-.02,1.76l1.25-9.3c-.09.63-.26,1.24-.52,1.82,1.18-2.79,2.35-5.57,3.53-8.36-.26.57-.57,1.11-.95,1.61l5.47-7.08c-.64.77-1.28,1.41-2.03,2.07l7.08-5.47c-4.04,3.1-8.94,5.12-13.58,7.13l8.36-3.53c-21.17,8.93-44.13,13.35-66.51,18.13-23.65,5.05-47.43,9.52-71.31,13.39-13.42,2.18-26.86,4.16-40.33,5.98l9.3-1.25c-21.83,2.92-43.73,5.39-65.67,7.3-21,1.82-42.17,2.83-63.13.02l9.3,1.25c-8.65-1.23-17.15-3.12-25.45-5.86,6.97,17.14,13.94,34.28,20.92,51.41l.63-.83-5.47,7.08c2.36-2.96,5-5.59,7.95-7.96l-7.08,5.47c4.37-3.37,9.14-6.01,14.21-8.17l-8.36,3.53c10.54-4.32,21.75-6.47,33-8.01l-9.3,1.25c46.55-6.24,93.82-7.51,140.65-4.05,13.29.98,26.55,2.36,39.76,4.11l-9.3-1.25c12.75,1.73,25.46,4.03,37.42,8.95l-8.36-3.53c6.05,2.6,11.69,5.84,16.93,9.84l-7.08-5.47c8.12,6.35,14.92,14.06,21.23,22.17l-5.47-7.08c11.7,15.18,22.08,31.49,35.26,45.48,6.04,6.41,16.05,10.25,24.75,10.25s18.84-3.81,24.75-10.25c6.12-6.67,10.67-15.43,10.25-24.75s-3.69-17.78-10.25-24.75h0Z"/>
    <path class="cls-3" d="M627.44,392.3c1.17-7.77,2.31-15.6,2.5-23.47.03-1.13.04-2.25.03-3.38,0-.23-.01-.46-.02-.69-.05-1.07-1.02-8.36-1.26-9.46-.04-.2-.08-.39-.13-.59l-3.53-8.36c-.04-.14-.11-.26-.2-.37-.29-.48-5.12-6.76-5.56-7.2l-.22-.18-7.08-5.47-4.18-1.76c-1.49-.65-2.98-1.28-4.49-1.89-.83-.22-8.66-1.23-9.46-1.26-3.23-.14-6.55.3-9.61,1.27-1,.32-7.55,3.03-8.52,3.56-2.96,1.64-5.7,3.8-8.07,6.22-6.03,6.16-8.35,12.49-11.48,20.36-.83,2.09-1.49,4.26-2.01,6.45s-.89,4.31-1.19,6.49c-.72,5.14-1.48,10.28-1.92,15.46-.8,9.48-1.3,19.05-.97,28.57.27,7.74,1.32,15.42,2.48,23.07.36,2.34.79,4.67,1.33,6.97,1.08,4.63,3.11,9.11,5.19,13.33.37.74.81,1.42,1.3,2.08,1.68,2.26,3.82,5.26,5.69,7.35.12.13.23.26.35.38,2.14,2.19,7.73,6.1,7.99,6.27.35.24.69.47,1.06.66,1.48.76,3.49,1.49,4.72,2.01.47.2,3.07,1.42,4.55,1.9.5.16,1,.26,1.52.35,2.43.41,7.06,1.07,9.5,1.27.33.03.65.05.98.05,1.88-.02,4.3-.51,5.84-.71,1.76-.24,3.96-.38,5.83-.86.52-.13,1.02-.32,1.52-.51,2.52-.97,6.11-2.48,8.54-3.61.3-.14.6-.28.9-.44.48-.26.93-.57,1.38-.88,2.66-1.89,5.39-4.01,7.89-6.11.79-.66,1.52-1.4,2.2-2.17,2.56-2.91,4.86-6.09,7.16-9.2.66-.9,1.3-1.81,1.92-2.74,1.17-1.74,2.28-3.53,3.32-5.36,3.51-6.15,6.19-12.78,8.82-19.33,4.31-10.74,6.04-22.03,7.26-33.51,1.2-11.38-.02-22.98-2.17-34.17-1.34-6.97-4.14-13.42-7.08-19.87-.88-1.94-1.92-3.81-3.14-5.56-2.16-3.13-4.57-6.12-6.96-9.07-.63-.78-1.3-1.53-2.01-2.24-3.28-3.32-7.24-6.08-10.95-8.82-1.47-1.08-3.02-2.05-4.63-2.91-4.18-2.22-8.65-3.96-13.05-5.67-1.74-.68-3.52-1.25-5.33-1.74-6.6-1.78-13.56-2.53-20.31-3.24-4.02-.42-8.08-.57-12.12-.51-7.4.11-14.93,1.02-22.15,2.55-2.16.46-4.3,1.07-6.36,1.85-3.65,1.39-7.27,2.92-10.81,4.56-.91.42-1.81.89-2.68,1.39-4.1,2.34-7.79,5.51-11.46,8.41-1.53,1.21-2.98,2.51-4.33,3.92-3.27,3.43-6.08,7.35-8.87,11.14-1.12,1.53-2.15,3.13-3.06,4.79-2.3,4.17-4.06,8.82-5.81,13.15-.82,2.04-1.49,4.14-2.01,6.27-1.24,5.06-1.77,10.36-2.35,15.51-.25,2.24-.36,4.5-.34,6.76s.2,4.52.48,6.77c.64,5.14,1.19,10.45,2.39,15.54.48,2.04,1.07,4.06,1.77,6.03.82,2.32,1.83,4.58,2.79,6.85s1.91,4.7,3.04,6.96c.9,1.81,1.94,3.56,3.11,5.21,2.78,3.91,5.67,7.98,9.12,11.38.72.71,1.47,1.37,2.26,2,3.03,2.44,6.08,4.97,9.34,7.11,4.05,2.65,8.89,4.33,13.26,6.14,6.47,2.69,13.64,3.39,20.54,4.06,2,.2,4.02.25,6.04.17,1.04-.04,2.08-.12,3.12-.24,4.07-.45,8.15-.98,12.19-1.65,4.51-.75,8.9-2.08,13.15-3.75,6.76-2.66,13.55-5.5,19.96-8.96,5.95-3.21,11.2-7.3,16.45-11.57,1.45-1.17,2.82-2.45,4.06-3.83,2.47-2.76,4.66-5.81,6.87-8.77.58-.78,1.13-1.57,1.63-2.4.46-.78.87-1.59,1.24-2.42,1.54-3.45,3.25-6.95,4.35-10.59.3-.98.51-1.99.66-3,.53-3.42,1.06-6.93,1.38-10.38.05-.57.08-1.14.08-1.71.01-1.07-.07-2.14-.19-3.2-.45-3.85-.84-8.3-1.8-12.27-1.18-4.86-3.57-9.76-5.51-14.19-1.77-4.06-4.06-7.84-6.5-11.53-2.2-4.08-5.2-7.35-9.01-9.82-3.38-3.09-7.35-5.18-11.9-6.26-4.65-1.46-9.3-1.67-13.96-.63-4.66.21-9,1.6-13.01,4.15l-7.08,5.47c-4.34,4.37-7.34,9.52-9,15.44-.42,3.1-.83,6.2-1.25,9.3.02,6.32,1.61,12.21,4.78,17.67,2.48,3.75,4.81,7.6,6.59,11.74l-3.53-8.36c1.13,2.7,2,5.48,2.42,8.38l-1.25-9.3c.26,2,.29,3.98.04,5.98.42-3.1.83-6.2,1.25-9.3-.26,1.82-.74,3.57-1.44,5.28l3.53-8.36c-.78,1.78-1.77,3.44-2.94,4.99l5.47-7.08c-1.83,2.36-4,4.4-6.35,6.23l7.08-5.47c-5.5,4.21-11.84,7.38-18.2,10.07l8.36-3.53c-5.4,2.25-11,3.99-16.8,4.78,3.1-.42,6.2-.83,9.3-1.25-3.95.5-7.92.54-11.87.02l9.3,1.25c-3.32-.47-6.54-1.32-9.63-2.63l8.36,3.53c-2.44-1.06-4.73-2.38-6.85-4l7.08,5.47c-2.01-1.58-3.8-3.4-5.38-5.42l5.47,7.08c-2.15-2.8-3.85-5.88-5.23-9.12l3.53,8.36c-1.92-4.63-3.17-9.52-3.87-14.48l1.25,9.3c-.66-4.94-.73-9.92-.1-14.87l-1.25,9.3c.57-4.16,1.61-8.22,3.22-12.11-1.18,2.79-2.35,5.57-3.53,8.36,1.48-3.5,3.39-6.79,5.7-9.81l-5.47,7.08c2.09-2.69,4.48-5.11,7.16-7.22l-7.08,5.47c2.55-1.97,5.31-3.59,8.27-4.86l-8.36,3.53c3.7-1.53,7.58-2.47,11.54-3.02l-9.3,1.25c7.74-1.02,15.75-.85,23.48.18l-9.3-1.25c5.22.72,10.37,1.95,15.24,4-2.79-1.18-5.57-2.35-8.36-3.53,3.03,1.31,5.91,2.92,8.53,4.93l-7.08-5.47c2.17,1.7,4.12,3.62,5.81,5.8l-5.47-7.08c1.84,2.42,3.32,5.05,4.53,7.84l-3.53-8.36c1.94,4.63,3.09,9.52,3.77,14.48l-1.25-9.3c1.04,7.79,1.01,15.67-.02,23.46.42-3.1.83-6.2,1.25-9.3-1.08,7.93-3.18,15.67-6.26,23.06l3.53-8.36c-2.72,6.43-6.13,12.63-10.35,18.2l5.47-7.08c-1.19,1.54-2.47,2.97-4,4.17l7.08-5.47c-.88.66-1.78,1.21-2.79,1.65l8.36-3.53c-.88.35-1.76.6-2.69.74,3.1-.42,6.2-.83,9.3-1.25-.79.09-1.56.1-2.36.02l9.3,1.25c-.65-.1-1.27-.26-1.88-.49l8.36,3.53c-.57-.25-1.09-.55-1.6-.91l7.08,5.47c-.55-.43-1.03-.91-1.48-1.45l5.47,7.08c-.73-.94-1.28-1.97-1.75-3.07l3.53,8.36c-1.58-3.97-2.2-8.39-2.78-12.61l1.25,9.3c-1.04-7.82-1.22-15.73-.99-23.61.22-7.59.59-15.26,1.58-22.8l-1.25,9.3c.65-4.78,1.67-9.5,3.51-13.98l-3.53,8.36c.6-1.41,1.21-2.92,2.11-4.16l-5.47,7.08c.15-.2.33-.38.52-.54l-7.08,5.47c.18-.15.37-.27.59-.35l-8.36,3.53.31-.07-9.3,1.25.31.02-9.3-1.25.31.13c-5.15-3-10.3-6-15.44-9l.22.18-5.47-7.08c.13.14.23.3.29.48l-3.53-8.36c.07.19.11.39.13.59l-1.25-9.3c.22,2.66,0,5.42-.15,8.08-.16,2.81-.44,5.61-.81,8.4l1.25-9.3c-.09.64-.18,1.27-.28,1.91-1.46,4.65-1.67,9.3-.63,13.96.21,4.66,1.6,9,4.15,13.01,2.2,4.08,5.2,7.35,9.01,9.82,3.38,3.09,7.35,5.18,11.9,6.26,3.1.42,6.2.83,9.3,1.25,6.32-.02,12.21-1.61,17.67-4.78,2.36-1.82,4.72-3.65,7.08-5.47,4.34-4.37,7.34-9.52,9-15.44h0Z"/>
    <path class="cls-2" d="M312.26,265.81c-1.13-1.73-1.27-3.92-.08-5.67.69-1.02,1.59-1.83,2.1-2.98.7-1.57.58-3.16.31-4.8-.45-2.74-.73-5.72-1.64-8.36s-2.63-4.74-5.47-4.94c-5.79-.42-8.58,7.44-10.25,11.7-2.2,5.6-3.4,11.6-3.63,17.61-.27,7.16,1.35,14.27.68,21.42l4.27-1.77c-2.87-3.5-3.66-8.55-2.92-12.92.91-5.32,3.56-10.06,6.6-14.44l-4.57-.6c1.2,6.26,1.64,12.61,1.38,18.98h5c.24-9.23.48-18.46.72-27.69l-4.91.66c1.07,4.73,2.15,9.47,3.22,14.2.56,2.47,4.16,2.28,4.82,0,1.67-5.76,2.39-11.79,2.11-17.78-.15-3.2-4.98-3.24-5,0-.02,3.46-.04,6.93-.06,10.39l4.91-.66c-.71-3.89-1.42-7.78-2.13-11.68-.22-1.21-1.61-1.96-2.74-1.79-1.29.19-2.06,1.18-2.17,2.46-.93,11.03-4.77,21.66-10.95,30.82l4.66,1.26c0-6.3,1.74-12.39,5.06-17.74l-4.66-1.26c.87,6.55.46,13.13-1.3,19.5l4.82,1.33.54-2.74h-4.82c.38,1.51.54,2.99.52,4.55-.03,2.47,3.44,3.41,4.66,1.26,2.44-4.3,4.49-8.8,6.18-13.44l-4.82-1.33c-1.49,5.81-3.31,11.52-5.46,17.12-1.01,2.64,3.3,4.44,4.57,1.93,3.05-6.05,6.09-12.1,9.14-18.15l-4.57-1.93c-.97,5.21-2.38,10.33-4.2,15.31-.97,2.64,3.37,4.5,4.57,1.93,2.5-5.33,4.69-10.8,6.55-16.39.43-1.28-.49-2.73-1.75-3.08-1.4-.38-2.6.48-3.08,1.75l-5.72,15.3c-.43,1.15.38,2.52,1.45,2.95,1.22.49,2.38.02,3.12-1.02,3.68-5.21,6.69-10.81,9.13-16.7l-4.82-1.33c-1.27,5.39-2.92,10.67-4.97,15.81-.45,1.14.4,2.53,1.45,2.95,1.19.48,2.42.04,3.12-1.02,3.07-4.68,5.58-9.66,7.61-14.87l-4.82-1.33c-1.01,3.42-2.27,6.72-3.84,9.92-1.43,2.92,2.45,5.13,4.32,2.52,2.63-3.67,4.93-7.56,6.89-11.63l-4.32-2.52c-1.72,3.97-3.43,7.93-5.15,11.9l4.57,1.93c1.61-5.69,3.27-11.37,4.99-17.03l-4.91-.66c.01.86.02,1.73.03,2.59.03,2.24,2.68,3.2,4.27,1.77,3.25-2.93,7.21-4.93,11.48-5.87.66-.15,2.1-.66,2.77-.4.49.19.61.99.71,1.5.32,1.69-.12,3.61-1.2,4.95l4.18,1.1c-.19-.79-.45-1.64-.39-2.47.01-.14.05-.52.09-.59-.02.04.41-.45.42-.36.01.08-.29-.05-.29-.05-.35-.22-.11-.24-.16.06-.1.63.05,1.15-.17,1.81-.93,2.8-3.97,4.65-6.32,6.14-6.59,4.19-13.57,7.82-20.82,10.73-4.18,1.68-8.45,3.13-12.78,4.37l2.82,3.67c1.99-2.77,5.03-4.54,8.01-6.06,3.33-1.7,6.82-3.12,9.98-5.13,3.77-2.4,6.34-5.78,9.41-8.94s6.58-5.25,10.63-6.47l-3.16-2.41c.26,3.78-.87,7.61-3.45,10.44-.14.16-1.3,1.23-1.34,1.12-.03-.09,1.14.89.74.81-.1-.02.02-1.48.03-1.62.2-1.96.99-3.94,2.22-5.47l-4.27-1.77c-.11,2.66-1.31,5-3.26,6.78l3.54,3.54c1.72-1.99,3.44-3.97,5.16-5.96l-3.93-3.03c-1.45,2.56-3.71,4.57-6.49,5.57l2.82,3.67c2.78-4.95,6.08-9.53,9.93-13.7.84-.91.99-2.29.2-3.28-.7-.87-2.22-1.41-3.23-.64-4.14,3.18-8.28,6.36-12.43,9.54-1.07.82-1.64,2.15-.9,3.42.63,1.08,2.32,1.7,3.42.9,1.98-1.44,3.62-3.14,4.92-5.23s-.81-4.01-2.82-3.67c-2.27.38-4.41,1.13-6.46,2.16l3.42,3.42c1.38-1.99,2.95-3.82,4.67-5.53l-3.93-3.03-6.23,8.65c-1.15,1.6.41,3.73,2.16,3.76,2.15.03,4.29-.24,6.36-.79l-2.82-3.67c-.91,1.86-2.36,3.39-4.34,4.11l2.82,3.67c2.83-3.78,6.45-6.91,10.53-9.27,1.35-.78,1.7-2.83.51-3.93-.58-.54-.75-.97-.86-1.77-.18-1.34-1.9-2.07-3.08-1.75-1.44.4-1.93,1.73-1.75,3.08.21,1.53,1.02,2.94,2.15,3.98l.51-3.93c-4.85,2.82-8.97,6.58-12.32,11.07-1.28,1.72.86,4.39,2.82,3.67,3.17-1.17,5.83-3.35,7.33-6.41.94-1.91-.61-4.27-2.82-3.67-1.67.45-3.3.64-5.04.62l2.16,3.76c2.08-2.88,4.15-5.76,6.23-8.65,1.69-2.35-1.96-4.98-3.93-3.03s-3.83,4.21-5.45,6.55c-1.53,2.21,1.37,4.45,3.42,3.42,1.67-.83,3.43-1.35,5.27-1.65l-2.82-3.67c-.82,1.32-1.86,2.51-3.12,3.44l2.52,4.32,12.43-9.54-3.03-3.93c-4.13,4.47-7.74,9.4-10.72,14.71-1,1.78.68,4.44,2.82,3.67,4.02-1.44,7.36-4.14,9.48-7.87,1.36-2.39-2.01-5.24-3.93-3.03-1.72,1.99-3.44,3.97-5.16,5.96-2.1,2.42,1.13,5.72,3.54,3.54,2.93-2.66,4.57-6.38,4.72-10.31.08-2.03-2.89-3.48-4.27-1.77-2.2,2.73-3.53,5.9-3.72,9.43-.09,1.72.2,3.53,1.68,4.61s3.2.92,4.75.23c2.69-1.2,4.67-4.15,5.86-6.75,1.33-2.9,1.98-6.06,1.76-9.24-.11-1.56-1.52-2.91-3.16-2.41-3.48,1.06-6.74,2.7-9.62,4.92s-5.22,5.29-7.86,7.97c-4.32,4.38-10.35,6.2-15.59,9.16-3.11,1.75-5.85,3.95-7.94,6.86-1.31,1.82.85,4.24,2.82,3.67,9.73-2.79,19.16-6.67,28.02-11.58,4.06-2.25,8.43-4.58,11.82-7.78,1.58-1.49,2.91-3.29,3.57-5.38s.6-4.99-1.01-6.72c-1.9-2.04-5.08-1.68-6.97.18-2.22,2.18-1.84,5.39-1.18,8.14.41,1.71,2.99,2.58,4.18,1.1,1.97-2.44,3.04-5.43,2.68-8.59-.4-3.49-2.44-6.66-6.34-6.37-6.36.47-12.48,3.48-17.17,7.7l4.27,1.77c-.01-.86-.02-1.73-.03-2.59-.04-2.84-4.09-3.37-4.91-.66-1.72,5.66-3.38,11.33-4.99,17.03-.34,1.19.31,2.49,1.45,2.95,1.04.42,2.62.13,3.12-1.02l5.15-11.9c.54-1.24.37-2.68-.9-3.42-1.09-.64-2.83-.32-3.42.9-1.96,4.07-4.26,7.95-6.89,11.63l4.32,2.52c1.75-3.58,3.22-7.29,4.35-11.11.38-1.29-.46-2.72-1.75-3.08-1.42-.39-2.58.48-3.08,1.75-1.87,4.8-4.28,9.37-7.11,13.68l4.57,1.93c2.04-5.15,3.7-10.43,4.97-15.81.31-1.31-.41-2.71-1.75-3.08-1.44-.39-2.56.49-3.08,1.75-2.26,5.48-5.2,10.67-8.62,15.51l4.57,1.93c1.91-5.1,3.81-10.2,5.72-15.3l-4.82-1.33c-1.72,5.18-3.73,10.25-6.05,15.2l4.57,1.93c1.82-4.98,3.23-10.09,4.2-15.31.23-1.22-.23-2.46-1.45-2.95-1.09-.44-2.55-.11-3.12,1.02-3.05,6.05-6.09,12.1-9.14,18.15l4.57,1.93c2.15-5.6,3.97-11.31,5.46-17.12.81-3.16-3.73-4.32-4.82-1.33-1.54,4.24-3.45,8.32-5.68,12.25l4.66,1.26c.02-1.98-.22-3.96-.7-5.88-.58-2.31-4.34-2.46-4.82,0l-.54,2.74c-.61,3.12,3.95,4.47,4.82,1.33,1.87-6.77,2.4-13.87,1.48-20.83-.31-2.34-3.24-3.55-4.66-1.26-3.76,6.07-5.75,13.12-5.74,20.27,0,2.59,3.32,3.26,4.66,1.26,6.68-9.92,10.63-21.45,11.63-33.35l-4.91.66c.71,3.89,1.42,7.78,2.13,11.68.52,2.83,4.89,2.09,4.91-.66.02-3.46.04-6.93.06-10.39h-5c.26,5.58-.38,11.08-1.93,16.45h4.82c-1.07-4.73-2.15-9.47-3.22-14.2-.64-2.81-4.84-2.09-4.91.66-.24,9.23-.48,18.46-.72,27.69-.08,3.22,4.87,3.21,5,0,.28-6.81-.27-13.61-1.55-20.3-.44-2.29-3.45-2.21-4.57-.6-3.53,5.09-6.48,10.72-7.3,16.94-.77,5.89.6,11.85,4.39,16.48.62.76,1.9.88,2.73.52.97-.43,1.44-1.25,1.54-2.28.54-5.79-.43-11.53-.67-17.3-.22-5.33.4-10.62,1.87-15.76.72-2.51,1.62-4.96,2.74-7.32.78-1.64,1.74-4.34,3.47-5.23.49-.25.65-.16.87.1.42.48.7,1.4.89,2.15.28,1.15.45,2.33.66,3.49.24,1.36.6,2.76.71,4.14.1,1.18-.54,1.72-1.25,2.6-.87,1.1-1.55,2.31-1.9,3.69-.69,2.7-.26,5.65,1.27,7.98,1.76,2.68,6.09.18,4.32-2.52h0Z"/>
    <path class="cls-2" d="M176.63,274.09c-.11,2.4.21,4.81.93,7.1.45,1.43,2.29,2.46,3.67,1.49s2.36-2.19,2.64-3.85l-4.91-.66c.09,1.94-.06,3.81-.52,5.7-.32,1.31.42,2.71,1.75,3.08,1.42.39,2.58-.49,3.08-1.75,1.2-3.04,2.4-6.08,3.61-9.12.5-1.26-.54-2.75-1.75-3.08-1.42-.39-2.57.49-3.08,1.75-.95,2.39-1.64,4.85-2.08,7.39-.19,1.11.13,2.23,1.15,2.82.91.53,2.31.44,3.03-.39,1.83-2.11,3.38-4.4,4.55-6.93l-4.57-1.93c-1.23,3.92-2.53,7.82-3.89,11.7-.96,2.73,3.14,4.29,4.57,1.93,1.81-2.99,3.43-6.09,4.83-9.29l-4.57-1.93c-.72,2.68-1.43,5.37-2.15,8.05-.35,1.3.44,2.72,1.75,3.08,1.43.39,2.57-.49,3.08-1.75,1.22-3,2.43-6,3.65-8.99l-4.82-1.33c-.69,4.2-1.76,8.31-3.2,12.31-.98,2.71,3.16,4.32,4.57,1.93,2.2-3.74,3.9-7.76,5.06-11.94l-4.82-1.33c-.42,2.04-.83,4.09-1.25,6.13-.58,2.87,2.89,4.19,4.57,1.93,1.46-1.97,2.72-4.05,3.8-6.24l-4.57-1.93c-.56,4.13-1.57,8.16-3.04,12.06-.99,2.63,3.4,4.51,4.57,1.93,2.51-5.54,4.53-11.27,5.95-17.19l-4.91-.66c-.68,5.22-1.36,10.44-2.04,15.66-.14,1.07.88,2.15,1.84,2.41,1.08.3,2.24-.2,2.82-1.15,2.84-4.62,4.42-9.83,4.75-15.23.17-2.77-4.46-3.47-4.91-.66-1.16,7.28-2.32,14.56-3.48,21.84l4.82,1.33c2.03-13.08,4.05-26.16,6.08-39.24h-4.82c1.87,9.37.26,18.98-1.32,28.27-.47,2.78,2.91,4.34,4.57,1.93,6.25-9.07,7.42-20.33,8.43-30.99.26-2.78-4.41-3.44-4.91-.66-1.96,10.89-4.5,21.66-7.6,32.28-.77,2.65,3.35,4.55,4.57,1.93,5.36-11.55,7.69-24.04,9.88-36.5.23-1.33-.36-2.69-1.75-3.08-1.31-.36-2.71.44-3.08,1.75-3.66,12.94-6.59,26.07-8.77,39.33-.46,2.78,2.9,4.34,4.57,1.93,6.06-8.78,7.32-19.65,8.44-29.98.3-2.77-4.51-3.45-4.91-.66-1.57,10.82-3.15,21.64-4.72,32.46-.18,1.23.2,2.45,1.45,2.95,1.15.46,2.46.07,3.12-1.02,6.97-11.55,7.88-25.33,8.57-38.47.15-2.8-4.31-3.42-4.91-.66-2.65,12.09-5.29,24.19-7.94,36.28-.59,2.68,3.13,4.49,4.57,1.93,5.3-9.43,7.61-20.04,9.79-30.53l-4.82-1.33c-1.46,10.81-3.93,21.45-7.39,31.8-.89,2.67,3.27,4.45,4.57,1.93,3.34-6.47,5.92-13.32,7.63-20.4.68-2.8-3-4.28-4.57-1.93-4.29,6.44-6.78,13.87-7.41,21.57-.18,2.14,2.87,3.32,4.27,1.77,3.65-4.06,6.38-8.75,8.09-13.93l-4.82-1.33c-.95,5.24-2.44,10.36-4.45,15.29l4.91.66c.42-4.23.85-8.46,1.27-12.7.18-1.83-2.29-3.2-3.76-2.16-3.07,2.17-5.65,4.8-7.75,7.92-1.8,2.68,2.53,5.18,4.32,2.52,1.6-2.38,3.62-4.47,5.96-6.13l-3.76-2.16c-.42,4.23-.85,8.46-1.27,12.7-.12,1.22,1.04,2.32,2.17,2.46,1.33.16,2.26-.6,2.74-1.79,2.01-4.93,3.5-10.05,4.45-15.29.57-3.14-3.8-4.42-4.82-1.33-1.43,4.34-3.75,8.33-6.81,11.73l4.27,1.77c.56-6.83,2.94-13.36,6.73-19.05l-4.57-1.93c-1.61,6.67-3.98,13.11-7.12,19.21l4.57,1.93c3.46-10.34,5.94-20.99,7.39-31.8.18-1.34-.32-2.68-1.75-3.08-1.24-.34-2.8.42-3.08,1.75-2.09,10.05-4.21,20.3-9.29,29.33l4.57,1.93c2.65-12.09,5.29-24.19,7.94-36.28l-4.91-.66c-.65,12.25-1.38,25.17-7.89,35.94l4.57,1.93c1.57-10.82,3.15-21.64,4.72-32.46l-4.91-.66c-1.02,9.48-2.2,19.41-7.75,27.46l4.57,1.93c2.18-13.26,5.11-26.4,8.77-39.33l-4.82-1.33c-2.11,11.97-4.23,24.19-9.38,35.3l4.57,1.93c3.1-10.62,5.63-21.39,7.6-32.28l-4.91-.66c-.93,9.82-2,20.13-7.74,28.47l4.57,1.93c1.73-10.23,3.38-20.62,1.32-30.93-.47-2.33-4.44-2.44-4.82,0-2.03,13.08-4.05,26.16-6.08,39.24-.21,1.33.34,2.69,1.75,3.08,1.19.33,2.86-.4,3.08-1.75,1.16-7.28,2.32-14.56,3.48-21.84l-4.91-.66c-.28,4.53-1.7,8.85-4.07,12.71l4.66,1.26c.68-5.22,1.36-10.44,2.04-15.66.16-1.21-1.07-2.33-2.17-2.46-1.19-.14-2.45.56-2.74,1.79-1.32,5.49-3.12,10.85-5.45,15.99l4.57,1.93c1.47-3.9,2.48-7.93,3.04-12.06.17-1.24-.19-2.44-1.45-2.95-1.08-.43-2.56-.11-3.12,1.02-1.08,2.2-2.35,4.28-3.8,6.24l4.57,1.93c.42-2.04.83-4.09,1.25-6.13.64-3.13-3.95-4.46-4.82-1.33-1.05,3.79-2.57,7.35-4.56,10.74l4.57,1.93c1.44-4,2.51-8.11,3.2-12.31.53-3.2-3.61-4.31-4.82-1.33s-2.43,6-3.65,8.99l4.82,1.33c.72-2.68,1.43-5.37,2.15-8.05.32-1.19-.3-2.49-1.45-2.95-1.04-.42-2.61-.13-3.12,1.02-1.41,3.2-3.02,6.3-4.83,9.29l4.57,1.93c1.36-3.88,2.66-7.78,3.89-11.7.83-2.65-3.36-4.53-4.57-1.93-.99,2.14-2.22,4.14-3.77,5.92l4.18,2.43c.44-2.54,1.13-5,2.08-7.39l-4.82-1.33c-1.2,3.04-2.4,6.08-3.61,9.12l4.82,1.33c.56-2.3.81-4.66.7-7.03-.06-1.24-.9-2.31-2.17-2.46-1.13-.13-2.53.55-2.74,1.79-.05.31-.06.66-.34.86l3.67,1.49c-.6-1.91-.84-3.77-.75-5.77.15-3.22-4.85-3.21-5,0h0Z"/>
    <image width="825" height="72" transform="translate(56.88 415.95) scale(.48)" xlink:href="../../../../../../OneDrive/Pictures/Screenshots/Screenshot 2024-09-18 005356.png"/>
  </g>
  <g id="Layer_4" data-name="Layer 4">
    <g>
      <path d="M53.39,273.75c1.57-24.43,18.49-47.3,37.03-62.28,19.52-15.77,43.68-27.6,67.12-36.27l1.52,7.13c-42.94,12.83-85.79,40.66-100.05,85.3l20.41-22.98c-16.62,62.66,33.34,107.97,86.54,128.18,44.06,16.74,94.79,19.21,141.36,13.2,57.82-7.47,125.1-32.96,145.32-92.86l-16.84,17.87c3.5-16.32,4.74-33.26.25-49.53-9.32-33.76-40.38-54.93-70.2-69.46,3.21-3.83,6.2-7.98,10.23-10.99l1.01-.05c30.64,17.32,64.1,39.08,78.54,72.65,2.84,6.6,5.6,15.51,6.2,22.65v8.17c-6.55,24.53-20.91,46.4-40.6,62.28-39.24,31.64-99.43,49.94-149.59,50.56-.86.01-2.27-.33-2.8.52h-21.44c-.53-.85-1.94-.51-2.8-.52-49.99-.54-111.97-16.9-150.61-49.54-14.92-12.6-33.23-34.42-38.42-53.49-.98-3.59-1.38-7.23-2.19-10.83.15-3.21-.21-6.5,0-9.7Z"/>
      <path d="M359.73,362.6c2.8-14.22,5.02-28.67,6.12-43.15,2.52-33.21,1.13-70.19-4.75-102.98-1.32-7.35-3.34-14.56-4.68-21.87,10.78,3.73,21.66,8.16,30.62,15.34,8.1,43.52,9.27,88.32,5.29,132.42-9.63,8.11-19.52,18.47-32.59,20.25Z"/>
      <path d="M151.93,190.01c-2.89,11.16-5.13,22.57-6.56,34.03-4.34,34.67-3.68,73.97.5,108.63,1,8.24,2.94,16.53,3.96,24.64.06.51.31,1.73-.2,1.73-11.73-5.51-24.23-12.03-32.08-22.56-2.71-38.69-4.78-79.61,1.85-117.98.49-2.85,1.58-10.49,2.7-12.62,1.22-2.34,8.09-6.48,10.59-7.79,3.78-1.98,13.47-6.74,17.18-7.84.69-.2,1.34-.33,2.05-.24Z"/>
      <path d="M260.68,331.97c-1.05.89-.16,13.08-.54,15.54-.65,4.18-5.66,1.72-8.58,1.24l-1.09-16.78c-6.47-.17-13.07.61-19.4-1.02-2.07,5.54-.46,11.34-.59,17.04-.41,1.24-5.53,1.01-6.79.81-6.61-1.08-.97-15.16-3.71-17.36-4.07-3.27-17.2-2.46-22.55-3.47-2.01,5.37,1.35,10.85.22,16.3-3.1,1.58-6.31-.71-9.47-.55l-1.26-17.89c-1.3-1.98-15.91-.01-11.68-8.17,2.8-.7,9.89,2.62,10.92,1.85,2.5-6.75.14-20.91,11.74-13.75.88,3.6-1.89,12.71.21,15,3.12,3.41,17.09,2.27,21.72,4.06,1.9-5.02-.12-9.74.75-14.83,1.04-1.57,10.26-1.19,10.52-.19l-.99,14.94c6.17,1.81,12.72,1.16,19.04,2.05,2.41-.6.62-14.19,1.82-16.78h7.4c2.69,0,1.51,12.34,1.85,14.49.2.54,1.9,1.34,2.23,1.34h12.51c1.51-2.78-1.9-14.31-.8-15.86,2.31-1.26,8.12-1.8,9.35.92.15.34,1.15,4.24,1.15,4.47v9.45c7.45.63,14.58-1.54,21.97-1.77,2.03-1.35.66-12.98.22-15.62,1.37-1.15,9.18-2.91,10.03-1.72,1.12,2.06-.34,14.1,1.28,14.54,8.82-.19,17.08-3.78,25.72-5.13.37,3.09-.09,5.05-3.05,6.39l-22.45,4.87-1.27,16.86c-.48.69-8.65,2.55-9.48.73v-15.57l-21.98,2.79c-2.04,5.1-.33,10.72-1.11,15.99-2.61,1.48-5.23,1.91-8.23,1.67-.3-.07-1.36-3.09-1.36-3.34v-13.53h-14.3Z"/>
      <path d="M356.15,349.84l-3.06,13.02c-61.09,28.18-134.3,25.35-194.67-3.28l-3.93-9.73c19.07,8.15,38.72,15.15,59.13,19.24,47.92,9.6,99.7,5.09,142.54-19.25Z"/>
    </g>
    <path class="cls-1" d="M236.06,130.75c-.13-.12-.38-.19-.76-.19-2.29-.25-4.26.19-5.91,1.33-1.65,1.14-3.08,2.8-4.29,4.95-1.21,2.16-2.26,4.7-3.14,7.62-.89,2.92-1.78,5.97-2.67,9.15-1.02,3.43-2.03,6.89-3.05,10.39-1.02,3.49-2.29,6.76-3.81,9.81-1.52,3.05-3.3,5.84-5.34,8.38-2.03,2.54-4.57,4.57-7.62,6.1,2.41,1.52,4.48,3.43,6.19,5.72,1.71,2.29,3.21,4.86,4.48,7.72,1.27,2.86,2.38,5.91,3.33,9.15s1.87,6.45,2.76,9.62c.89,3.56,1.87,6.99,2.95,10.29,1.08,3.3,2.32,6.23,3.72,8.76,1.4,2.54,3.11,4.54,5.14,6,2.03,1.46,4.57,2.13,7.62,2,1.14-.12,2.03.03,2.67.48.63.45,1.02.99,1.14,1.62.13.64-.07,1.24-.57,1.81-.51.57-1.4.92-2.67,1.05-6.86,1.02-12.42.51-16.67-1.52-4.26-2.03-7.69-4.98-10.29-8.86-2.61-3.87-4.57-8.32-5.91-13.34-1.33-5.02-2.51-10-3.52-14.96-1.02-5.46-2.19-10.35-3.53-14.67-1.33-4.32-3.4-7.11-6.19-8.38-.38,0-.83.03-1.33.1-.51.07-1.02.1-1.52.1h-.38v8.57c0,5.21.06,10.23.19,15.05.13,4.83.29,9.37.48,13.62.19,4.26.41,8.1.67,11.53.25,3.43.57,6.29.95,8.57.25,1.52.32,2.95.19,4.29-.13,1.33-1.21,2.32-3.24,2.95-1.02.25-2.1.25-3.24,0-1.4-.26-2.83-.73-4.29-1.43-1.46-.7-2.51-1.36-3.14-2-.89-1.14-1.49-2.44-1.81-3.91-.32-1.46-.67-3.21-1.05-5.24l-.19-1.14c-.38-2.03-.67-5.08-.86-9.15-.19-4.06-.32-8.73-.38-14-.07-5.27-.1-11.02-.1-17.24s.12-12.51.38-18.86c.25-10.16.73-19.94,1.43-29.34.7-9.4,1.55-17.15,2.57-23.25-5.08.89-9.56,2.32-13.43,4.29-3.88,1.97-7.21,4.29-10,6.96-4.19,4.19-6.86,8.7-8,13.53-.89,3.43-.95,6.86-.19,10.29.63,2.41,1.74,4.07,3.33,4.95,1.59.89,3.14,1.65,4.67,2.29,1.78.64,3.11,1.27,4,1.91,2.03,1.4,3.05,2.99,3.05,4.76.25.89.12,1.65-.38,2.29-.64.89-1.33,1.46-2.1,1.71-1.4.64-3.18.32-5.34-.95-2.67-1.52-4.89-3.3-6.67-5.34-1.78-2.03-3.18-4.19-4.19-6.48-1.14-2.54-1.78-5.24-1.91-8.1-.13-2.86.19-5.68.95-8.48,1.27-5.59,4.38-10.86,9.34-15.81,3.17-3.05,6.98-5.72,11.43-8,4.45-2.29,9.65-3.87,15.62-4.76l.76-.19c1.14-.25,2.41-.44,3.81-.57,1.4-.13,2.73-.06,4,.19,1.78.26,3.24.99,4.38,2.19,1.14,1.21,1.52,3.14,1.14,5.81-.38,2.29-.73,5.27-1.05,8.96-.32,3.69-.57,7.81-.76,12.39-.19,4.57-.38,9.53-.57,14.86-.19,5.34-.29,10.74-.29,16.2.63,0,1.27.03,1.91.1.63.07,1.27.16,1.91.29,3.3-1.52,5.84-4.67,7.62-9.43,1.78-4.76,3.43-10,4.95-15.72,1.27-4.57,2.63-9.11,4.1-13.62,1.46-4.51,3.36-8.48,5.72-11.91,2.35-3.43,5.3-6.03,8.86-7.81,3.55-1.78,8-2.22,13.34-1.33l1.72.38c1.01.26,1.68.67,2,1.24.32.57.38,1.14.19,1.71-.19.57-.57,1.08-1.14,1.52-.57.45-1.3.6-2.19.48Z"/>
    <path class="cls-1" d="M307.23,172.37c-2.6,2.48-5.39,4.12-8.37,4.93-2.98.81-6.04,1.12-9.2.93s-6.39-.71-9.67-1.58c-3.29-.87-6.54-1.8-9.76-2.79-2.48-.74-4.84-1.46-7.07-2.14-2.23-.68-4.4-1.14-6.51-1.4l-1.3-.19c-.37,0-.74-.03-1.12-.09-.37-.06-.74-.09-1.12-.09-6.69-.12-12.46.65-17.3,2.32-4.83,1.67-8.8,3.88-11.9,6.6-3.97,3.47-6.63,7.44-8,11.9-1.24,4.46-1.3,8.8-.19,13.02.25.99.56,1.89.93,2.7.37.81.74,1.64,1.12,2.51.87.87,1.86,1.52,2.98,1.95,1.12.44,2.17.78,3.16,1.02.87.25,1.7.5,2.51.74.8.25,1.52.62,2.14,1.12,1.98,1.37,2.98,2.91,2.98,4.65.25.87.12,1.61-.37,2.23-.37.74-1.05,1.3-2.05,1.67-1.49.62-3.22.31-5.21-.93-6.45-3.59-10.72-9.05-12.83-16.36-1.49-5.21-1.43-10.41.19-15.62.74-2.6,1.89-5.11,3.44-7.53,1.55-2.42,3.56-4.68,6.04-6.79,3.59-2.98,8.06-5.39,13.39-7.25,5.33-1.86,11.72-2.73,19.15-2.6h2.6c4.71.62,9.82,1.18,15.34,1.67,5.52.5,10.75.87,15.71,1.12,3.72.25,7.03.34,9.95.28,2.91-.06,5.17-.28,6.79-.65,2.35-.49,3.84-.15,4.46,1.02.62,1.18.31,2.39-.93,3.63ZM242.89,225.56c.62-7.81,1.33-15.37,2.14-22.69.81-7.31,1.83-13.7,3.07-19.15,0-2.48,1.12-4.15,3.35-5.02,1.12-.62,2.35-.8,3.72-.56,1.36.25,2.6.62,3.72,1.12,1.12.74,1.98,1.71,2.6,2.88.62,1.18.74,2.64.37,4.37-.99,4.34-1.83,10.32-2.51,17.95-.68,7.62-1.21,15.84-1.58,24.64,3.72-.99,7.5-1.36,11.34-1.12,3.84.25,7.62,1.67,11.34,4.28.74.5,1.14,1.09,1.21,1.77.06.68-.09,1.27-.46,1.77-.37.5-.9.81-1.58.93-.68.13-1.39-.06-2.14-.56-3.1-2.11-6.35-3.19-9.76-3.25-3.41-.06-6.79.34-10.13,1.21-.12,1.12-.19,2.23-.19,3.35v3.35c-.12,4.34-.22,8.62-.28,12.83-.06,4.22-.06,8.21,0,11.99.06,3.78.19,7.22.37,10.32.19,3.1.4,5.77.65,8,.49,1.61.59,3.13.28,4.56-.31,1.43-1.52,2.39-3.63,2.88-1.12.25-2.17.19-3.16-.19-1.37-.25-2.73-.77-4.09-1.58-1.37-.8-2.3-1.52-2.79-2.14-.87-1.24-1.43-2.57-1.67-4-.25-1.42-.5-3.13-.74-5.11l-.19-1.12c-.37-3.47-.56-8.65-.56-15.53s.19-14.47.56-22.78c-3.22.87-6.29,1.15-9.2.84-2.91-.31-5.55-1.77-7.9-4.37-1.49-1.73-1.61-3.04-.37-3.91,1.24-.87,2.66-.56,4.28.93,1.73,1.61,3.75,2.42,6.04,2.42s4.74-.37,7.35-1.12l.56-8.18Z"/>
    <path class="cls-1" d="M292.54,209.3h1.42c1.78-1.54,3.23-3.74,4.36-6.58,1.13-2.85,2.02-6.05,2.67-9.61.65-3.56,1.09-7.39,1.33-11.48.24-4.09.36-8.16.36-12.19-3.32.24-6.41-.29-9.25-1.6-3.44-1.54-6.11-3.85-8.01-6.94-1.66-2.61-2.67-5.66-3.03-9.16-.36-3.5.06-7.5,1.25-12.01.36-1.54.86-2.76,1.51-3.65.65-.89,1.27-1.51,1.87-1.87,1.18-.36,2.14-.41,2.85-.18.95.24,1.6.83,1.96,1.78.83,1.42.71,3.44-.36,6.05-.24.71-.53,1.34-.89,1.87s-.71,1.1-1.07,1.69c-.83,1.07-1.51,2.29-2.05,3.65-.53,1.36-.44,3.23.27,5.61.36,1.42.89,2.67,1.6,3.74,1.42,2.37,3.44,4.09,6.05,5.16,2.02,1.07,4.45,1.49,7.3,1.25v-5.34c0-1.78-.06-3.62-.18-5.52-.12-7.24-.12-14.29,0-21.18.12-6.88.8-12.99,2.05-18.33,1.25-5.34,3.32-9.64,6.23-12.9,2.91-3.26,7.09-4.89,12.55-4.89,2.61,0,4.63.65,6.05,1.96,2.37,1.66,4.09,4.33,5.16,8.01.95,3.44,1.42,7.18,1.42,11.21,0,3.32-.27,6.79-.8,10.41-.53,3.62-1.31,7.15-2.31,10.59-1.01,3.44-2.22,6.74-3.65,9.88-1.42,3.14-3.03,5.9-4.8,8.28-.95,1.31-1.96,2.49-3.03,3.56-1.07,1.07-2.2,2.08-3.38,3.03,0,4.51-.15,9.11-.45,13.79-.3,4.69-.98,9.11-2.05,13.26-1.07,4.15-2.52,7.98-4.36,11.48-1.84,3.5-4.24,6.38-7.21,8.63,2.49.6,5.1,1.31,7.83,2.14,2.73.83,5.52,1.72,8.36,2.67,3.79,1.18,7.59,2.34,11.39,3.47,3.8,1.13,7.23,1.93,10.32,2.4,3.08.47,5.75.53,8.01.18,2.25-.36,3.74-1.42,4.45-3.2.24-1.19.68-2.05,1.33-2.58.65-.53,1.25-.74,1.78-.62s.98.53,1.33,1.25.36,1.66,0,2.85c-.36,1.78-.98,3.59-1.87,5.43-.89,1.84-2.11,3.53-3.65,5.07-1.42,1.42-3.2,2.52-5.34,3.29-2.14.77-4.63,1.04-7.47.8-2.73-.24-5.73-1.19-8.99-2.85-3.26-1.66-6.73-3.56-10.41-5.69-3.8-2.14-7.71-4.24-11.75-6.32-4.03-2.08-8.07-3.53-12.1-4.36-1.31.59-2.67,1.07-4.09,1.42-1.42.36-2.97.65-4.63.89-2.49.59-4.27.65-5.34.18-1.31-.36-2.08-1.19-2.31-2.49-.24-.95.18-1.84,1.25-2.67,1.07-1.07,3.32-1.9,6.76-2.49.59,0,1.18-.03,1.78-.09.59-.06,1.25-.09,1.96-.09ZM323.15,101.28c-2.14,1.07-3.71,2.91-4.72,5.52-1.01,2.61-1.66,5.76-1.96,9.43-.3,3.68-.36,7.8-.18,12.37.18,4.57.44,9.28.8,14.15.24,2.37.41,4.8.53,7.3.12,2.49.24,4.98.36,7.47.83-.83,1.72-1.9,2.67-3.2,1.66-2.14,3.14-4.69,4.45-7.65,1.3-2.96,2.43-6.05,3.38-9.25.95-3.2,1.66-6.5,2.14-9.88.47-3.38.71-6.61.71-9.7,0-4.03-.42-7.35-1.25-9.97-.71-2.49-1.84-4.33-3.38-5.52-.95-.71-2.08-1.07-3.38-1.07h-.18Z"/>
    <path class="cls-1" d="M210.11,304.08c-2.51-.32-5.01-.84-7.5-1.54-2.49-.71-4.94-1.54-7.34-2.49-4.59-1.78-8.76-3.98-12.49-6.6-3.73-2.5-6.6-5.25-8.64-8.23-1.23-1.79-2.04-3.61-2.42-5.43-.38-1.83-.2-3.62.52-5.37.74-1.83,1.98-3.13,3.73-3.89,1.74-.76,3.52-1.14,5.33-1.14,2.31,0,4.62.42,6.94,1.24,2.31.82,4.38,1.94,6.2,3.38-.49-2.32-.6-4.73-.31-7.25.29-2.52.97-4.82,2.04-6.92,1.07-2.1,2.5-3.79,4.26-5.06,1.77-1.28,3.85-1.85,6.25-1.7,1.51.13,2.87.6,4.06,1.42,1.19.82,2.22,1.93,3.09,3.33,1.59,2.57,2.67,5.9,3.25,9.97.3,2,.47,4.1.53,6.32.06,2.21,0,4.49-.17,6.84-.21,3.5-.69,7.09-1.45,10.76-.75,3.68-1.75,7.24-2.99,10.69l-.83,1.77-2.06-.09ZM182.7,285.73c1.57,1.84,3.43,3.64,5.58,5.4,2.15,1.76,4.44,3.39,6.89,4.87s5.01,2.77,7.71,3.85c2.69,1.08,5.38,1.82,8.06,2.23,1.27-3.4,2.28-6.92,3.02-10.57.75-3.64,1.22-7.21,1.44-10.71.15-2.28.21-4.49.16-6.64-.05-2.15-.22-4.17-.51-6.05-.26-1.83-.64-3.53-1.14-5.1-.5-1.56-1.11-2.93-1.83-4.11-1.11-1.81-2.48-2.96-4.1-3.46-.93-.3-1.73-.26-2.4.13-.67.38-1.28.93-1.84,1.65-.79,1.05-1.45,2.39-2,4.04-.47,1.35-.85,2.82-1.13,4.39-.28,1.57-.46,3.18-.53,4.82-.08,1.64-.04,3.24.11,4.8.15,1.56.4,2.98.76,4.26.08.64-.07,1.1-.45,1.4-.38.3-.78.4-1.2.32-.42-.08-.8-.24-1.13-.47-.69-.51-1.37-1.21-2.05-2.1-.79-1.07-1.74-2.06-2.86-2.96-1.12-.9-2.34-1.67-3.67-2.32-1.33-.64-2.69-1.13-4.08-1.46-1.39-.33-2.77-.5-4.16-.52-.69,0-1.37.21-2.03.65-.66.44-1.16.95-1.49,1.53-.64,1.39-.53,3.07.31,5.05.39,1.13.97,2.29,1.76,3.45.78,1.17,1.72,2.38,2.81,3.64Z"/>
    <path class="cls-1" d="M292.45,291.36c-1.07-2.82-1.93-5.74-2.59-8.76-.66-3.02-1.16-6.06-1.51-9.12-.71-5.83-.74-11.45-.08-16.85.54-5.33,1.81-9.9,3.81-13.71,1.19-2.31,2.65-4.17,4.35-5.6,1.71-1.42,3.69-2.25,5.94-2.47,2.34-.25,4.4.33,6.19,1.73,1.78,1.4,3.18,3.06,4.2,4.97,1.29,2.44,2.16,5.1,2.6,7.99.44,2.89.42,5.7-.07,8.42,2.16-1.82,4.64-3.29,7.45-4.4,2.81-1.11,5.62-1.69,8.43-1.74,2.81-.05,5.38.5,7.72,1.64,2.34,1.14,4.11,3.01,5.3,5.61.72,1.66.98,3.35.78,5.07-.19,1.72-.78,3.43-1.77,5.12-1.81,3.12-4.7,6.13-8.66,9.02-1.94,1.44-4.05,2.81-6.35,4.11-2.29,1.3-4.73,2.52-7.3,3.66-3.8,1.74-7.84,3.25-12.14,4.53-4.29,1.27-8.6,2.23-12.92,2.86l-2.33.12-1.07-2.21ZM296.34,252.2c-1.05,2.68-1.9,5.65-2.54,8.9-.65,3.25-1.06,6.58-1.25,9.98-.19,3.41-.09,6.83.28,10.27.38,3.44,1.11,6.69,2.19,9.73,4.29-.58,8.56-1.5,12.81-2.76,4.25-1.26,8.27-2.77,12.07-4.51,2.48-1.12,4.84-2.31,7.08-3.57,2.23-1.26,4.26-2.57,6.08-3.93,1.78-1.31,3.36-2.66,4.73-4.06,1.36-1.4,2.46-2.81,3.29-4.24,1.27-2.19,1.72-4.27,1.33-6.25-.21-1.15-.71-1.97-1.48-2.46-.78-.49-1.7-.82-2.77-1.01-1.55-.24-3.34-.18-5.37.17-1.69.26-3.44.69-5.25,1.28-1.81.59-3.6,1.31-5.37,2.15-1.77.84-3.43,1.78-4.99,2.81-1.55,1.04-2.91,2.1-4.05,3.19-.63.44-1.2.55-1.72.32-.52-.23-.86-.59-1.02-1.09-.15-.49-.2-.98-.14-1.46.15-1.01.5-2.12,1.06-3.34.68-1.43,1.19-2.99,1.51-4.67.32-1.68.44-3.4.37-5.17-.07-1.76-.33-3.47-.76-5.11-.44-1.64-1.03-3.2-1.79-4.67-.38-.73-.99-1.32-1.82-1.78-.84-.45-1.65-.69-2.44-.71-1.82.11-3.53,1.17-5.14,3.16-.98,1.04-1.86,2.31-2.64,3.79-.79,1.48-1.54,3.15-2.25,5.01Z"/>
  </g>
</svg>